<svg viewBox="0 0 16 18" fill="none" xmlns="http://www.w3.org/2000/svg">
<path d="M11.9583 1.96663V0.666626C11.9583 0.324959 11.675 0.041626 11.3333 0.041626C10.9917 0.041626 10.7083 0.324959 10.7083 0.666626V1.91663H5.29165V0.666626C5.29165 0.324959 5.00832 0.041626 4.66665 0.041626C4.32499 0.041626 4.04165 0.324959 4.04165 0.666626V1.96663C1.79165 2.17496 0.699988 3.51663 0.533321 5.50829C0.516654 5.74996 0.716654 5.94996 0.949988 5.94996H15.05C15.2917 5.94996 15.4917 5.74163 15.4667 5.50829C15.3 3.51663 14.2083 2.17496 11.9583 1.96663Z" fill="#013763"/>
<path d="M14.6667 7.20007H1.33333C0.875 7.20007 0.5 7.57507 0.5 8.03341V13.1667C0.5 15.6667 1.75 17.3334 4.66667 17.3334H11.3333C14.25 17.3334 15.5 15.6667 15.5 13.1667V8.03341C15.5 7.57507 15.125 7.20007 14.6667 7.20007ZM5.675 14.1751C5.63333 14.2084 5.59167 14.2501 5.55 14.2751C5.5 14.3084 5.45 14.3334 5.4 14.3501C5.35 14.3751 5.3 14.3917 5.25 14.4001C5.19167 14.4084 5.14167 14.4167 5.08333 14.4167C4.975 14.4167 4.86667 14.3917 4.76667 14.3501C4.65833 14.3084 4.575 14.2501 4.49167 14.1751C4.34167 14.0167 4.25 13.8001 4.25 13.5834C4.25 13.3667 4.34167 13.1501 4.49167 12.9917C4.575 12.9167 4.65833 12.8584 4.76667 12.8167C4.91667 12.7501 5.08333 12.7334 5.25 12.7667C5.3 12.7751 5.35 12.7917 5.4 12.8167C5.45 12.8334 5.5 12.8584 5.55 12.8917C5.59167 12.9251 5.63333 12.9584 5.675 12.9917C5.825 13.1501 5.91667 13.3667 5.91667 13.5834C5.91667 13.8001 5.825 14.0167 5.675 14.1751ZM5.675 11.2584C5.51667 11.4084 5.3 11.5001 5.08333 11.5001C4.86667 11.5001 4.65 11.4084 4.49167 11.2584C4.34167 11.1001 4.25 10.8834 4.25 10.6667C4.25 10.4501 4.34167 10.2334 4.49167 10.0751C4.725 9.84174 5.09167 9.76674 5.4 9.90007C5.50833 9.94174 5.6 10.0001 5.675 10.0751C5.825 10.2334 5.91667 10.4501 5.91667 10.6667C5.91667 10.8834 5.825 11.1001 5.675 11.2584ZM8.59167 14.1751C8.43333 14.3251 8.21667 14.4167 8 14.4167C7.78333 14.4167 7.56667 14.3251 7.40833 14.1751C7.25833 14.0167 7.16667 13.8001 7.16667 13.5834C7.16667 13.3667 7.25833 13.1501 7.40833 12.9917C7.71667 12.6834 8.28333 12.6834 8.59167 12.9917C8.74167 13.1501 8.83333 13.3667 8.83333 13.5834C8.83333 13.8001 8.74167 14.0167 8.59167 14.1751ZM8.59167 11.2584C8.55 11.2917 8.50833 11.3251 8.46667 11.3584C8.41667 11.3917 8.36667 11.4167 8.31667 11.4334C8.26667 11.4584 8.21667 11.4751 8.16667 11.4834C8.10833 11.4917 8.05833 11.5001 8 11.5001C7.78333 11.5001 7.56667 11.4084 7.40833 11.2584C7.25833 11.1001 7.16667 10.8834 7.16667 10.6667C7.16667 10.4501 7.25833 10.2334 7.40833 10.0751C7.48333 10.0001 7.575 9.94174 7.68333 9.90007C7.99167 9.76674 8.35833 9.84174 8.59167 10.0751C8.74167 10.2334 8.83333 10.4501 8.83333 10.6667C8.83333 10.8834 8.74167 11.1001 8.59167 11.2584ZM11.5083 14.1751C11.35 14.3251 11.1333 14.4167 10.9167 14.4167C10.7 14.4167 10.4833 14.3251 10.325 14.1751C10.175 14.0167 10.0833 13.8001 10.0833 13.5834C10.0833 13.3667 10.175 13.1501 10.325 12.9917C10.6333 12.6834 11.2 12.6834 11.5083 12.9917C11.6583 13.1501 11.75 13.3667 11.75 13.5834C11.75 13.8001 11.6583 14.0167 11.5083 14.1751ZM11.5083 11.2584C11.4667 11.2917 11.425 11.3251 11.3833 11.3584C11.3333 11.3917 11.2833 11.4167 11.2333 11.4334C11.1833 11.4584 11.1333 11.4751 11.0833 11.4834C11.025 11.4917 10.9667 11.5001 10.9167 11.5001C10.7 11.5001 10.4833 11.4084 10.325 11.2584C10.175 11.1001 10.0833 10.8834 10.0833 10.6667C10.0833 10.4501 10.175 10.2334 10.325 10.0751C10.4083 10.0001 10.4917 9.94174 10.6 9.90007C10.75 9.83341 10.9167 9.81674 11.0833 9.85007C11.1333 9.85841 11.1833 9.87507 11.2333 9.90007C11.2833 9.91674 11.3333 9.94174 11.3833 9.97507C11.425 10.0084 11.4667 10.0417 11.5083 10.0751C11.6583 10.2334 11.75 10.4501 11.75 10.6667C11.75 10.8834 11.6583 11.1001 11.5083 11.2584Z" fill="#013763"/>
</svg>
