<svg viewBox="0 0 21 20" fill="none" xmlns="http://www.w3.org/2000/svg">
    <path d="M7.2749 4.79102C6.93324 4.79102 6.6499 4.50768 6.6499 4.16602V1.66602C6.6499 1.32435 6.93324 1.04102 7.2749 1.04102C7.61657 1.04102 7.8999 1.32435 7.8999 1.66602V4.16602C7.8999 4.50768 7.61657 4.79102 7.2749 4.79102Z" fill="#013763"></path>
    <path d="M13.5249 4.79102C13.1832 4.79102 12.8999 4.50768 12.8999 4.16602V1.66602C12.8999 1.32435 13.1832 1.04102 13.5249 1.04102C13.8666 1.04102 14.1499 1.32435 14.1499 1.66602V4.16602C14.1499 4.50768 13.8666 4.79102 13.5249 4.79102Z" fill="#013763"></path>
    <path d="M10.3999 11.741C10.8332 11.741 11.1499 11.4827 11.1499 11.0743C11.1499 10.6577 10.8332 10.416 10.3999 10.416C9.96657 10.416 9.6499 10.6577 9.6499 11.0743C9.6499 11.4827 9.96657 11.741 10.3999 11.741Z" fill="#013763"></path>
    <path d="M10.4 14.1672C10.9246 14.1672 11.35 13.8202 11.35 13.3922C11.35 12.9642 10.9246 12.6172 10.4 12.6172C9.87528 12.6172 9.44995 12.9642 9.44995 13.3922C9.44995 13.8202 9.87528 14.1672 10.4 14.1672Z" fill="#013763"></path>
    <path d="M16.7082 3.74935C16.1582 3.34102 15.3665 3.73268 15.3665 4.42435V4.50768C15.3665 5.48268 14.6665 6.38268 13.6915 6.48268C12.5665 6.59935 11.6165 5.71602 11.6165 4.61602V3.74935C11.6165 3.29102 11.2415 2.91602 10.7832 2.91602H10.0165C9.55815 2.91602 9.18315 3.29102 9.18315 3.74935V4.61602C9.18315 5.27435 8.84149 5.85768 8.32482 6.18268C8.24982 6.23268 8.16649 6.27435 8.08315 6.31602C8.00815 6.35768 7.92482 6.39102 7.83315 6.41602C7.73315 6.44935 7.62482 6.47435 7.50815 6.48268C7.37482 6.49935 7.24149 6.49935 7.10815 6.48268C6.99149 6.47435 6.88315 6.44935 6.78315 6.41602C6.69982 6.39102 6.61649 6.35768 6.53315 6.31602C6.44982 6.27435 6.36649 6.23268 6.29149 6.18268C5.76649 5.81602 5.43315 5.18268 5.43315 4.50768V4.42435C5.43315 3.78268 4.74982 3.39935 4.20815 3.67435C4.19982 3.68268 4.19149 3.68268 4.18315 3.69102C4.14982 3.70768 4.12482 3.72435 4.09149 3.74935C4.06649 3.77435 4.03315 3.79102 4.00815 3.81602C3.77482 3.99935 3.56649 4.20768 3.39149 4.43268C3.29982 4.53268 3.22482 4.64102 3.15815 4.74935C3.14982 4.75768 3.14149 4.76602 3.13315 4.78268C3.05815 4.89102 2.99149 5.01602 2.93315 5.13268C2.91649 5.14935 2.90815 5.15768 2.90815 5.17435C2.85815 5.27435 2.80815 5.37435 2.77482 5.48268C2.74982 5.52435 2.74149 5.55768 2.72482 5.59935C2.67482 5.72435 2.64149 5.84935 2.60815 5.97435C2.57482 6.09102 2.54982 6.21602 2.53315 6.34102C2.51649 6.43268 2.50815 6.52435 2.49982 6.62435C2.49149 6.74102 2.48315 6.85768 2.48315 6.97435V14.2743C2.48315 16.516 4.29982 18.3327 6.54149 18.3327H14.2582C16.4998 18.3327 18.3165 16.516 18.3165 14.2743V6.97435C18.3165 5.64935 17.6832 4.49102 16.7082 3.74935ZM10.3998 15.2077C9.10815 15.2077 8.31649 14.566 8.31649 13.5327C8.31649 12.966 8.60815 12.4743 9.11649 12.1827C8.74982 11.9243 8.50815 11.541 8.50815 11.016C8.50815 9.93268 9.37482 9.37435 10.3998 9.37435C11.4248 9.37435 12.2832 9.93268 12.2832 11.016C12.2832 11.541 12.0498 11.9243 11.6748 12.1827C12.1915 12.4743 12.4832 12.966 12.4832 13.5327C12.4832 14.566 11.6832 15.2077 10.3998 15.2077Z" fill="#013763"></path>
</svg>
