<svg width="45" height="44" viewBox="0 0 45 44" fill="none" xmlns="http://www.w3.org/2000/svg">
    <rect x="0.75" width="44" height="44" rx="6" fill="#EBEFF3"/>
    <path d="M30.0548 19.0157C30.0548 19.3284 29.7955 19.5877 29.4828 19.5877H15.7527C15.44 19.5877 15.1806 19.3284 15.1806 19.0157C15.1806 18.7029 15.44 18.4436 15.7527 18.4436H16.5308L16.8206 17.0629C17.0952 15.7281 17.6673 14.5 19.9404 14.5H25.2951C27.5682 14.5 28.1403 15.7281 28.4149 17.0629L28.7047 18.4436H29.4828C29.7955 18.4436 30.0548 18.7029 30.0548 19.0157Z" fill="#003663"/>
    <path d="M30.3828 23.3335C30.2684 22.0749 29.9328 20.7324 27.4843 20.7324H17.7512C15.3027 20.7324 14.9747 22.0749 14.8526 23.3335L14.4255 27.9788C14.3721 28.5585 14.5628 29.1383 14.9594 29.573C15.3637 30.0155 15.9358 30.2672 16.546 30.2672H17.98C19.2157 30.2672 19.4522 29.5578 19.6047 29.0925L19.7573 28.6348C19.9327 28.1085 19.9785 27.9788 20.665 27.9788H24.5704C25.2569 27.9788 25.2798 28.0551 25.4781 28.6348L25.6307 29.0925C25.7833 29.5578 26.0197 30.2672 27.2554 30.2672H28.6895C29.292 30.2672 29.8718 30.0155 30.276 29.573C30.6727 29.1383 30.8634 28.5585 30.81 27.9788L30.3828 23.3335ZM20.3294 24.9277H18.041C17.7283 24.9277 17.469 24.6684 17.469 24.3556C17.469 24.0429 17.7283 23.7835 18.041 23.7835H20.3294C20.6421 23.7835 20.9015 24.0429 20.9015 24.3556C20.9015 24.6684 20.6421 24.9277 20.3294 24.9277ZM27.1944 24.9277H24.9061C24.5933 24.9277 24.334 24.6684 24.334 24.3556C24.334 24.0429 24.5933 23.7835 24.9061 23.7835H27.1944C27.5071 23.7835 27.7665 24.0429 27.7665 24.3556C27.7665 24.6684 27.5071 24.9277 27.1944 24.9277Z" fill="#003663"/>
</svg>
