<svg width="45" height="44" viewBox="0 0 45 44" fill="none" xmlns="http://www.w3.org/2000/svg">
<rect x="0.5" width="44" height="44" rx="6" fill="#EBEFF3"/>
<path d="M30.525 24.2167L30.1833 25.7667C29.5917 28.4333 27.5 30.3333 24.4833 30.3333H20.5167C17.5 30.3333 15.4083 28.4333 14.8167 25.7667L14.475 24.2167C14.3083 23.4583 14.7583 22.6 15.4833 22.3083L16.6667 21.8333L21.2583 19.9917C21.6583 19.8333 22.0833 19.75 22.5 19.75C22.9167 19.75 23.3417 19.8333 23.7417 19.9917L28.3333 21.8333L29.5167 22.3083C30.2417 22.6 30.6917 23.4583 30.525 24.2167Z" fill="#003663"/>
<path d="M28.3333 18.667V19.867C28.3333 20.1587 28.0333 20.367 27.7583 20.2503L24.2 18.8253C23.1083 18.4003 21.8917 18.4003 20.7917 18.8337L17.2417 20.2587C16.9667 20.3753 16.6667 20.167 16.6667 19.8753V18.667C16.6667 17.292 17.7917 16.167 19.1667 16.167H25.8333C27.2083 16.167 28.3333 17.292 28.3333 18.667Z" fill="#003663"/>
<path d="M24.5833 16.167H20.4167V14.5003C20.4167 14.042 20.7917 13.667 21.25 13.667H23.75C24.2083 13.667 24.5833 14.042 24.5833 14.5003V16.167Z" fill="#003663"/>
</svg>
