            <svg viewBox="0 0 21 20" fill="none" xmlns="http://www.w3.org/2000/svg">
              <path d="M18.2501 5.60742C18.2334 5.60742 18.2084 5.60742 18.1834 5.60742C13.7751 5.16575 9.37505 4.99909 5.01672 5.44075L3.31672 5.60742C2.96672 5.64075 2.65839 5.39075 2.62505 5.04075C2.59172 4.69075 2.84172 4.39075 3.18339 4.35742L4.88339 4.19075C9.31672 3.74075 13.8084 3.91575 18.3084 4.35742C18.6501 4.39075 18.9001 4.69908 18.8667 5.04075C18.8417 5.36575 18.5667 5.60742 18.2501 5.60742Z" fill="#6F7787"></path>
              <path d="M7.83338 4.76602C7.80005 4.76602 7.76672 4.76602 7.72505 4.75768C7.39172 4.69935 7.15838 4.37435 7.21672 4.04102L7.40005 2.94935C7.53338 2.14935 7.71671 1.04102 9.65838 1.04102H11.8417C13.7917 1.04102 13.975 2.19102 14.1 2.95768L14.2834 4.04102C14.3417 4.38268 14.1084 4.70768 13.775 4.75768C13.4334 4.81602 13.1084 4.58268 13.0584 4.24935L12.875 3.16602C12.7584 2.44102 12.7334 2.29935 11.85 2.29935H9.66672C8.78338 2.29935 8.76672 2.41602 8.64172 3.15768L8.45005 4.24102C8.40005 4.54935 8.13338 4.76602 7.83338 4.76602Z" fill="#6F7787"></path>
              <path d="M13.425 18.9577H8.075C5.16666 18.9577 5.05 17.3493 4.95833 16.0493L4.41666 7.65766C4.39166 7.316 4.65833 7.016 5 6.991C5.35 6.97433 5.64166 7.23266 5.66666 7.57433L6.20833 15.966C6.3 17.2327 6.33333 17.7077 8.075 17.7077H13.425C15.175 17.7077 15.2083 17.2327 15.2917 15.966L15.8333 7.57433C15.8583 7.23266 16.1583 6.97433 16.5 6.991C16.8417 7.016 17.1083 7.30766 17.0833 7.65766L16.5417 16.0493C16.45 17.3493 16.3333 18.9577 13.425 18.9577Z" fill="#6F7787"></path>
              <path d="M12.1334 14.375H9.3584C9.01673 14.375 8.7334 14.0917 8.7334 13.75C8.7334 13.4083 9.01673 13.125 9.3584 13.125H12.1334C12.4751 13.125 12.7584 13.4083 12.7584 13.75C12.7584 14.0917 12.4751 14.375 12.1334 14.375Z" fill="#6F7787"></path>
              <path d="M12.8334 11.041H8.66675C8.32508 11.041 8.04175 10.7577 8.04175 10.416C8.04175 10.0743 8.32508 9.79102 8.66675 9.79102H12.8334C13.1751 9.79102 13.4584 10.0743 13.4584 10.416C13.4584 10.7577 13.1751 11.041 12.8334 11.041Z" fill="#6F7787"></path>
            </svg>