        <svg viewBox="0 0 44 44" fill="none" xmlns="http://www.w3.org/2000/svg">
          <rect width="44" height="44" rx="6" fill="#EBEFF3"></rect>
          <path d="M30.3334 29.7092H29.5001V20.3176C29.5001 19.8009 29.2667 19.3176 28.8584 19.0009L27.8334 18.2009L27.8167 16.1592C27.8167 15.7009 27.4417 15.3342 26.9834 15.3342H24.1417L23.0251 14.4676C22.4251 13.9926 21.5751 13.9926 20.9751 14.4676L15.1417 19.0009C14.7334 19.3176 14.5001 19.8009 14.5001 20.3092L14.4584 29.7092H13.6667C13.3251 29.7092 13.0417 29.9926 13.0417 30.3342C13.0417 30.6759 13.3251 30.9592 13.6667 30.9592H30.3334C30.6751 30.9592 30.9584 30.6759 30.9584 30.3342C30.9584 29.9926 30.6751 29.7092 30.3334 29.7092ZM17.4167 22.6259V21.3759C17.4167 20.9176 17.7917 20.5426 18.2501 20.5426H19.9167C20.3751 20.5426 20.7501 20.9176 20.7501 21.3759V22.6259C20.7501 23.0842 20.3751 23.4592 19.9167 23.4592H18.2501C17.7917 23.4592 17.4167 23.0842 17.4167 22.6259ZM24.0834 29.7092H19.9167V27.4176C19.9167 26.7259 20.4751 26.1676 21.1667 26.1676H22.8334C23.5251 26.1676 24.0834 26.7259 24.0834 27.4176V29.7092ZM26.5834 22.6259C26.5834 23.0842 26.2084 23.4592 25.7501 23.4592H24.0834C23.6251 23.4592 23.2501 23.0842 23.2501 22.6259V21.3759C23.2501 20.9176 23.6251 20.5426 24.0834 20.5426H25.7501C26.2084 20.5426 26.5834 20.9176 26.5834 21.3759V22.6259Z" fill="#003663"></path>
        </svg>