<svg viewBox="0 0 16 18" fill="none" xmlns="http://www.w3.org/2000/svg">
<path d="M15.1829 6.04134C14.3079 2.19134 10.9496 0.458008 7.99959 0.458008C7.99959 0.458008 7.99959 0.458008 7.99126 0.458008C5.04959 0.458008 1.68292 2.18301 0.807925 6.03301C-0.167075 10.333 2.46626 13.9747 4.84959 16.2663C5.73292 17.1163 6.86626 17.5413 7.99959 17.5413C9.13292 17.5413 10.2663 17.1163 11.1413 16.2663C13.5246 13.9747 16.1579 10.3413 15.1829 6.04134ZM7.99959 10.2163C6.54959 10.2163 5.37459 9.04134 5.37459 7.59134C5.37459 6.14134 6.54959 4.96634 7.99959 4.96634C9.44959 4.96634 10.6246 6.14134 10.6246 7.59134C10.6246 9.04134 9.44959 10.2163 7.99959 10.2163Z" fill="#013763"/>
</svg>
