<svg viewBox="0 0 14 18" fill="none" xmlns="http://www.w3.org/2000/svg">
<path d="M10.2734 14.1876C10.2734 14.4986 10.0216 14.7509 9.71007 14.7509H4.07639C3.76485 14.7509 3.51302 14.4986 3.51302 14.1876C3.51302 13.8766 3.76485 13.6242 4.07639 13.6242H9.71007C10.0216 13.6242 10.2734 13.8766 10.2734 14.1876ZM11.9635 0.666748H1.82292C0.893359 0.666748 0.132812 1.42729 0.132812 2.35685V15.8777C0.132812 16.8072 0.893359 17.5678 1.82292 17.5678H11.9635C12.8931 17.5678 13.6536 16.8072 13.6536 15.8777V2.35685C13.6536 1.42729 12.8931 0.666748 11.9635 0.666748ZM6.89323 11.9341C4.40878 11.9341 2.38628 9.91162 2.38628 7.42716C2.38628 4.94271 4.40878 2.92022 6.89323 2.92022C9.37768 2.92022 11.4002 4.94271 11.4002 7.42716C11.4002 9.91162 9.37768 11.9341 6.89323 11.9341ZM8.6622 4.55399C8.92135 5.21876 9.0791 6.03001 9.1298 6.8638H10.2227C10.0594 5.88917 9.47346 5.05539 8.6622 4.55399ZM8.6622 10.3003C9.47346 9.79894 10.0594 8.96516 10.2233 7.99053H9.13036C9.0791 8.82432 8.92135 9.63557 8.6622 10.3003ZM6.89323 4.04696C6.53267 4.04696 5.90734 5.10609 5.78903 6.8638H7.99743C7.87912 5.10609 7.25379 4.04696 6.89323 4.04696ZM6.89323 10.8074C7.25379 10.8074 7.87912 9.74824 7.99743 7.99053H5.78903C5.90734 9.74824 6.53267 10.8074 6.89323 10.8074ZM3.56372 6.8638H4.65666C4.70736 6.03001 4.8651 5.21876 5.12425 4.55399C4.313 5.05539 3.7271 5.88917 3.56372 6.8638ZM3.56372 7.99053C3.7271 8.96516 4.313 9.79894 5.12482 10.3003C4.86567 9.63557 4.70792 8.82432 4.65722 7.99053H3.56372ZM9.1298 7.99053C9.0791 8.82432 8.92135 9.63557 8.6622 10.3003C9.47346 9.79894 10.0594 8.96516 10.2233 7.99053H9.1298ZM4.65666 7.99053H3.56372C3.7271 8.96516 4.313 9.79894 5.12482 10.3003C4.8651 9.63557 4.70736 8.82432 4.65666 7.99053ZM3.56372 6.8638H4.65666C4.70736 6.03001 4.8651 5.21876 5.12425 4.55399C4.313 5.05539 3.7271 5.88917 3.56372 6.8638ZM6.89323 4.04696C6.53267 4.04696 5.90734 5.10609 5.78903 6.8638H7.99743C7.87912 5.10609 7.25379 4.04696 6.89323 4.04696ZM5.78903 7.99053C5.90734 9.74824 6.53267 10.8074 6.89323 10.8074C7.25379 10.8074 7.87912 9.74824 7.99743 7.99053H5.78903ZM8.6622 4.55399C8.92135 5.21876 9.0791 6.03001 9.1298 6.8638H10.2227C10.0594 5.88917 9.47346 5.05539 8.6622 4.55399ZM10.2227 6.8638C10.0594 5.88917 9.47346 5.05539 8.66164 4.55399C8.92079 5.21876 9.07853 6.03001 9.12924 6.8638H10.2227ZM8.6622 10.3003C9.47346 9.79894 10.0594 8.96516 10.2233 7.99053H9.13036C9.0791 8.82432 8.92135 9.63557 8.6622 10.3003ZM6.89323 4.04696C6.53267 4.04696 5.90734 5.10609 5.78903 6.8638H7.99743C7.87912 5.10609 7.25379 4.04696 6.89323 4.04696ZM6.89323 10.8074C7.25379 10.8074 7.87912 9.74824 7.99743 7.99053H5.78903C5.90734 9.74824 6.53267 10.8074 6.89323 10.8074ZM3.56372 6.8638H4.65666C4.70736 6.03001 4.8651 5.21876 5.12425 4.55399C4.313 5.05539 3.7271 5.88917 3.56372 6.8638ZM3.56372 7.99053C3.7271 8.96516 4.313 9.79894 5.12482 10.3003C4.86567 9.63557 4.70792 8.82432 4.65722 7.99053H3.56372Z" fill="#013763"/>
</svg>
