            <svg viewBox="0 0 21 20" fill="none" xmlns="http://www.w3.org/2000/svg">
              <path d="M5.36666 16.2676C4.85832 16.2676 4.38332 16.0926 4.04166 15.7676C3.60832 15.3593 3.39999 14.7426 3.47499 14.0759L3.78332 11.3759C3.84166 10.8676 4.14999 10.1926 4.50832 9.82594L11.35 2.58427C13.0583 0.775936 14.8417 0.725936 16.65 2.43427C18.4583 4.1426 18.5083 5.92594 16.8 7.73427L9.95832 14.9759C9.60832 15.3509 8.95832 15.7009 8.44999 15.7843L5.76666 16.2426C5.62499 16.2509 5.49999 16.2676 5.36666 16.2676ZM14.025 2.42594C13.3833 2.42594 12.825 2.82594 12.2583 3.42594L5.41666 10.6759C5.24999 10.8509 5.05832 11.2676 5.02499 11.5093L4.71666 14.2093C4.68332 14.4843 4.74999 14.7093 4.89999 14.8509C5.04999 14.9926 5.27499 15.0426 5.54999 15.0009L8.23332 14.5426C8.47499 14.5009 8.87499 14.2843 9.04166 14.1093L15.8833 6.8676C16.9167 5.7676 17.2917 4.75094 15.7833 3.33427C15.1167 2.6926 14.5417 2.42594 14.025 2.42594Z" fill="#003663"></path>
              <path d="M15.2 9.12406C15.1833 9.12406 15.1583 9.12406 15.1416 9.12406C12.5416 8.86573 10.45 6.89073 10.05 4.30739C9.99996 3.96573 10.2333 3.64906 10.575 3.59073C10.9166 3.54073 11.2333 3.77406 11.2916 4.11573C11.6083 6.13239 13.2416 7.68239 15.275 7.88239C15.6166 7.91573 15.8666 8.22406 15.8333 8.56573C15.7916 8.88239 15.5166 9.12406 15.2 9.12406Z" fill="#003663"></path>
              <path d="M18.25 18.959H3.25C2.90833 18.959 2.625 18.6757 2.625 18.334C2.625 17.9923 2.90833 17.709 3.25 17.709H18.25C18.5917 17.709 18.875 17.9923 18.875 18.334C18.875 18.6757 18.5917 18.959 18.25 18.959Z" fill="#003663"></path>
            </svg>