<svg width="18" height="13" viewBox="0 0 18 13" fill="none" xmlns="http://www.w3.org/2000/svg">
<path d="M3.14401 12.4971C3.08537 12.4971 3.02732 12.4854 2.97324 12.4628C2.91916 12.4401 2.87013 12.4069 2.82901 12.3651L0.130005 9.59713C0.0466137 9.50847 0.000183105 9.39134 0.000183105 9.26963C0.000183105 9.14791 0.0466137 9.03078 0.130005 8.94213L2.83001 6.17313C2.89195 6.10848 2.97215 6.06427 3.05988 6.0464C3.14761 6.02854 3.23871 6.03786 3.32101 6.07313C3.40296 6.1095 3.47254 6.16898 3.5212 6.24429C3.56987 6.3196 3.59552 6.40746 3.59501 6.49713V8.34613H10.345C10.4658 8.34771 10.581 8.39714 10.6653 8.48356C10.7497 8.56999 10.7963 8.68636 10.795 8.80713V9.73013C10.7958 9.79001 10.7848 9.84946 10.7626 9.90509C10.7404 9.96072 10.7075 10.0114 10.6657 10.0543C10.6239 10.0972 10.5741 10.1315 10.5191 10.1551C10.464 10.1788 10.4049 10.1913 10.345 10.1921H3.59501V12.0381C3.59394 12.1276 3.56703 12.2148 3.51753 12.2893C3.46803 12.3638 3.39805 12.4225 3.31601 12.4581C3.2619 12.4826 3.20339 12.4959 3.14401 12.4971ZM14.844 6.97713C14.7845 6.977 14.7256 6.96475 14.671 6.94113C14.5852 6.90404 14.5127 6.84168 14.4632 6.76235C14.4137 6.68303 14.3896 6.59051 14.394 6.49713V4.65313H7.64501C7.52424 4.65154 7.40903 4.60212 7.32467 4.51569C7.2403 4.42926 7.19367 4.3129 7.19501 4.19213V3.26913C7.19367 3.14826 7.24027 3.03179 7.32461 2.9452C7.40894 2.85862 7.52415 2.80897 7.64501 2.80713H14.395V0.961126C14.3937 0.870646 14.419 0.78178 14.468 0.70565C14.5169 0.62952 14.5872 0.569509 14.67 0.533126C14.7522 0.498224 14.8431 0.489097 14.9306 0.506954C15.018 0.52481 15.0981 0.568807 15.16 0.633126L17.86 3.40213C17.9469 3.49048 17.9963 3.60894 17.998 3.73282C17.9996 3.8567 17.9534 3.97646 17.869 4.06713L15.169 6.83713C15.1269 6.88063 15.0763 6.91512 15.0205 6.9385C14.9646 6.96187 14.9046 6.97366 14.844 6.97313V6.97713Z" fill="white"/>
</svg>
