<svg viewBox="0 0 32 32" fill="none" xmlns="http://www.w3.org/2000/svg">
    <circle cx="16" cy="16" r="15.5" fill="#003663" stroke="white"></circle>
    <g clip-path="url(#clip0_1_1096)">
        <path d="M10.1441 22.4971C10.0854 22.4971 10.0274 22.4854 9.9733 22.4628C9.91922 22.4401 9.87019 22.4069 9.82907 22.3651L7.13007 19.5971C7.04667 19.5085 7.00024 19.3913 7.00024 19.2696C7.00024 19.1479 7.04667 19.0308 7.13007 18.9421L9.83007 16.1731C9.89201 16.1085 9.97221 16.0643 10.0599 16.0464C10.1477 16.0285 10.2388 16.0379 10.3211 16.0731C10.403 16.1095 10.4726 16.169 10.5213 16.2443C10.5699 16.3196 10.5956 16.4075 10.5951 16.4971V18.3461H17.3451C17.4658 18.3477 17.581 18.3971 17.6654 18.4836C17.7498 18.57 17.7964 18.6864 17.7951 18.8071V19.7301C17.7959 19.79 17.7848 19.8495 17.7627 19.9051C17.7405 19.9607 17.7075 20.0114 17.6658 20.0543C17.624 20.0972 17.5741 20.1315 17.5191 20.1551C17.4641 20.1788 17.405 20.1913 17.3451 20.1921H10.5951V22.0381C10.594 22.1276 10.5671 22.2148 10.5176 22.2893C10.4681 22.3638 10.3981 22.4225 10.3161 22.4581C10.262 22.4826 10.2034 22.4959 10.1441 22.4971ZM21.8441 16.9771C21.7846 16.977 21.7257 16.9648 21.6711 16.9411C21.5852 16.904 21.5128 16.8417 21.4633 16.7624C21.4138 16.683 21.3896 16.5905 21.3941 16.4971V14.6531H14.6451C14.5243 14.6515 14.4091 14.6021 14.3247 14.5157C14.2404 14.4293 14.1937 14.3129 14.1951 14.1921V13.2691C14.1937 13.1483 14.2403 13.0318 14.3247 12.9452C14.409 12.8586 14.5242 12.809 14.6451 12.8071H21.3951V10.9611C21.3937 10.8706 21.4191 10.7818 21.468 10.7057C21.5169 10.6295 21.5872 10.5695 21.6701 10.5331C21.7523 10.4982 21.8431 10.4891 21.9306 10.507C22.0181 10.5248 22.0981 10.5688 22.1601 10.6331L24.8601 13.4021C24.9469 13.4905 24.9963 13.6089 24.998 13.7328C24.9997 13.8567 24.9535 13.9765 24.8691 14.0671L22.1691 16.8371C22.1269 16.8806 22.0764 16.9151 22.0205 16.9385C21.9647 16.9619 21.9046 16.9737 21.8441 16.9731V16.9771Z" fill="white"></path>
    </g>
    <defs>
        <clipPath id="clip0_1_1096">
            <rect width="24" height="24" fill="white" transform="translate(4 4)"></rect>
        </clipPath>
    </defs>
</svg>
