<svg width="23" height="24" viewBox="0 0 23 24" fill="none" xmlns="http://www.w3.org/2000/svg">
<path d="M8.19084 4.35616C8.19084 4.5866 8.09936 4.8077 7.93642 4.97064C7.77347 5.13359 7.55248 5.22507 7.32204 5.22507C7.0916 5.22507 6.8706 5.13359 6.70766 4.97064C6.54471 4.8077 6.45312 4.5866 6.45312 4.35616V2.4312C6.45658 2.01862 6.62281 1.62407 6.91562 1.33339C7.20843 1.04271 7.60414 0.879353 8.01674 0.878906H14.4454C14.858 0.879353 15.2537 1.04271 15.5465 1.33339C15.8393 1.62407 16.0056 2.01862 16.009 2.4312V4.35616C16.009 4.5866 15.9174 4.8077 15.7545 4.97064C15.5915 5.13359 15.3705 5.22507 15.1401 5.22507C14.9097 5.22507 14.6887 5.13359 14.5257 4.97064C14.3628 4.8077 14.2713 4.5866 14.2713 4.35616V2.61844H8.18999L8.19084 4.35616Z" fill="#E03F3F"/>
<path fill-rule="evenodd" clip-rule="evenodd" d="M16.7045 21.1519H18.0949V7.83089H16.7045V21.1519ZM5.75824 17.3895L4.36873 15.9999V21.1537H5.75824V17.3912V17.3895ZM4.36873 12.3144L5.75824 10.924V7.83003H4.36873V12.3144ZM4.19377 22.1932V22.5982C4.19377 22.7375 4.24902 22.871 4.34747 22.9695C4.44593 23.068 4.57951 23.1233 4.71875 23.1233H5.41345C5.55269 23.1233 5.68627 23.068 5.78473 22.9695C5.88319 22.871 5.93854 22.7375 5.93854 22.5982V22.1932H16.5382V22.5982C16.5382 22.7375 16.5935 22.871 16.692 22.9695C16.7905 23.068 16.924 23.1233 17.0633 23.1233H17.758C17.8972 23.1233 18.0308 23.068 18.1293 22.9695C18.2277 22.871 18.283 22.7375 18.283 22.5982V22.1932H19.9332C20.5778 22.1913 21.1955 21.9344 21.6513 21.4786C22.107 21.0228 22.3639 20.4052 22.3657 19.7607V9.22125C22.3639 8.57668 22.107 7.95908 21.6513 7.5033C21.1955 7.04751 20.5778 6.79057 19.9332 6.78873H16.0238C16.0238 6.55829 15.9322 6.33729 15.7693 6.17435C15.6063 6.0114 15.3853 5.91992 15.1549 5.91992C14.9244 5.91992 14.7034 6.0114 14.5405 6.17435C14.3776 6.33729 14.286 6.55829 14.286 6.78873H8.20476C8.20476 6.55829 8.11317 6.33729 7.95023 6.17435C7.78728 6.0114 7.56629 5.91992 7.33585 5.91992C7.10541 5.91992 6.88441 6.0114 6.72147 6.17435C6.55852 6.33729 6.46693 6.55829 6.46693 6.78873H2.55753C1.91295 6.79057 1.29524 7.04751 0.839462 7.5033C0.38368 7.95908 0.126847 8.57668 0.125 9.22125V19.765C0.126847 20.4096 0.38368 21.0272 0.839462 21.483C1.29524 21.9388 1.91295 22.1957 2.55753 22.1976L4.19377 22.1932ZM10.3188 11.5567C10.2294 11.6407 10.1103 11.6858 9.98776 11.682C9.86518 11.6782 9.74909 11.6258 9.66508 11.5365C9.58108 11.4472 9.53602 11.3281 9.53979 11.2055C9.54357 11.0829 9.59593 10.9669 9.68527 10.8829C9.93456 10.649 10.1632 10.394 10.3687 10.1208C10.1162 10.0367 9.84247 10.042 9.59352 10.1359C9.34457 10.2298 9.13559 10.4064 9.00157 10.6363C8.86755 10.8661 8.81667 11.1352 8.85759 11.3981C8.89851 11.661 9.02876 11.9017 9.2263 12.08C9.42384 12.2582 9.67666 12.363 9.94237 12.3768C10.2081 12.3906 10.4704 12.3124 10.6853 12.1556C10.9003 11.9987 11.0546 11.7727 11.1225 11.5155C11.1904 11.2582 11.1677 10.9854 11.0581 10.7429C10.8338 11.0332 10.586 11.3053 10.3188 11.5567ZM12.3147 7.82918H11.3731C11.2766 8.33708 11.1108 8.82933 10.8805 9.29218L10.7055 9.11711H9.03511L4.00034 14.1519L7.06284 17.2144L12.0976 12.1806V10.5084L11.5612 9.97118C11.9342 9.30453 12.1881 8.57788 12.3111 7.82394L12.3147 7.82918Z" fill="#003663"/>
</svg>
