<svg width="22" height="22" viewBox="0 0 22 22" fill="none" xmlns="http://www.w3.org/2000/svg">
<path d="M19.0336 8.51348e-07H2.96636C2.57691 -0.000294307 2.19123 0.0761608 1.83135 0.224997C1.47147 0.373832 1.14444 0.592131 0.868962 0.867418C0.593481 1.1427 0.374945 1.46958 0.225844 1.82937C0.0767432 2.18916 -1.11839e-07 2.5748 0 2.96426L0 19.0324C0 19.8185 0.312289 20.5725 0.868167 21.1284C1.42405 21.6843 2.17798 21.9966 2.96411 21.9966H10.895L10.9085 14.1339H8.862C8.73459 14.1339 8.61237 14.0834 8.52207 13.9935C8.43177 13.9036 8.38074 13.7817 8.38015 13.6542L8.37117 11.1202C8.37087 11.0567 8.38311 10.9938 8.4072 10.9351C8.43128 10.8764 8.46673 10.823 8.5115 10.778C8.55627 10.733 8.60949 10.6973 8.6681 10.673C8.72671 10.6486 8.78955 10.6361 8.85301 10.6361H10.895V8.19075C10.8368 7.6104 10.9062 7.02435 11.0984 6.47366C11.2906 5.92298 11.6009 5.42099 12.0075 5.00287C12.4142 4.58476 12.9073 4.26064 13.4524 4.05324C13.9975 3.84583 14.5814 3.76015 15.1631 3.80221H17.2433C17.3711 3.80221 17.4936 3.85298 17.584 3.94334C17.6744 4.03371 17.7251 4.15628 17.7251 4.28408V6.41826C17.7251 6.54606 17.6744 6.66863 17.584 6.759C17.4936 6.84937 17.3711 6.90013 17.2433 6.90013H15.964C14.5858 6.90013 14.3185 7.55499 14.3185 8.51649V10.6394H17.3511C17.4191 10.6395 17.4863 10.6539 17.5484 10.6817C17.6104 10.7096 17.6659 10.7503 17.7111 10.8011C17.7563 10.8519 17.7902 10.9117 17.8106 10.9766C17.831 11.0415 17.8375 11.1099 17.8296 11.1775L17.5218 13.7115C17.5081 13.8288 17.4517 13.9369 17.3635 14.0154C17.2753 14.0939 17.1614 14.1372 17.0433 14.1372H14.332L14.3185 22H19.0359C19.822 22 20.576 21.6877 21.1318 21.1318C21.6877 20.5759 22 19.8219 22 19.0357V2.96426C22 2.5748 21.9233 2.18916 21.7742 1.82937C21.6251 1.46958 21.4065 1.1427 21.131 0.867418C20.8556 0.592131 20.5285 0.373832 20.1687 0.224997C19.8088 0.0761608 19.4231 -0.000294307 19.0336 8.51348e-07Z" fill="#475993"/>
</svg>
