<svg width="27" height="21" viewBox="0 0 27 21" fill="none" xmlns="http://www.w3.org/2000/svg">
<path d="M11.073 0.503511C13.6705 0.506062 16.1607 1.53968 17.9964 3.37726C19.8322 5.21484 20.8634 7.70605 20.8634 10.3035L19.7399 9.67789C19.6973 9.65455 19.6544 9.63238 19.6113 9.61138C19.4828 8.10583 18.9581 6.6611 18.0906 5.42392C17.2231 4.18674 16.0436 3.20118 14.672 2.56732C13.3003 1.93347 11.7854 1.67391 10.281 1.815C8.77654 1.95609 7.33622 2.49281 6.10634 3.37064C4.87646 4.24847 3.9008 5.43614 3.27845 6.81304C2.6561 8.18995 2.40924 9.70703 2.56292 11.2102C2.71659 12.7134 3.26536 14.1492 4.15345 15.3716C5.04154 16.5941 6.23731 17.5598 7.61938 18.1706C6.82138 18.2721 6.01374 18.2721 5.21574 18.1706C3.56555 16.9381 2.34513 15.2175 1.72744 13.2527C1.10975 11.2878 1.12615 9.1784 1.77427 7.22337C2.4224 5.26835 3.66939 3.56689 5.33852 2.36016C7.00765 1.15343 9.01422 0.502624 11.0739 0.5L11.073 0.503511ZM13.3218 2.92988L11.7021 3.79176L11.0529 4.70263L10.0598 4.52151L8.64226 5.34313L7.02876 4.77875L6.11611 5.33L5.07315 6.79125L5.39252 7.21738L5.88513 7.19726L5.96123 7.73187L5.3829 7.72226L5.14049 8.0075L4.2594 7.206L3.90415 8.19825L4.77915 8.37325L4.71351 9.07325L4.13251 9.30426L4.20253 9.96401L4.5385 10.3376L3.723 11.7429L3.8814 12.8611L4.7564 13.555L6.48888 13.3091L6.92638 14.4116L7.09525 15.6025L7.93703 17.2186L8.61865 17.3691L9.40088 15.8939L9.31864 15.3111L9.75176 14.7039L9.57675 13.4885L10.4727 12.2329L9.6065 12.3563L8.64402 10.7454L9.86899 11.7079L11.0669 10.8434L9.73077 10.2396L10.4019 10.1443L12.1991 10.5083L13.2894 11.0333L13.6088 11.609L14.4916 11.2704L14.7016 12.9775L15.4812 12.6914L16.8603 13.2636L16.8533 12.897L16.1944 12.2766C16.0881 12.1793 16.0043 12.06 15.9489 11.9271C15.8934 11.7941 15.8676 11.6506 15.8732 11.5066C15.8752 11.3688 15.905 11.2328 15.9608 11.1068L15.9512 11.0131L15.5731 10.3481L16.5566 9.96051L16.9189 9.01638L16.4937 8.011L16.7299 7.67938L17.5962 7.55601L17.975 7.02487C17.5178 6.06024 16.8689 5.19888 16.0678 4.49332C15.2667 3.78777 14.3303 3.25283 13.3156 2.92114L13.3218 2.92988Z" fill="#003663"/>
<path d="M24.3346 12.0231C24.955 11.6232 26.4468 11.3616 26.88 12.157C27.3131 12.9524 26.285 14.068 25.6138 14.3725L24.1587 15.034L23.8709 19.4318C23.86 19.6361 23.7858 19.832 23.6587 19.9924C23.5316 20.1528 23.3577 20.2697 23.1612 20.3269L22.5864 20.5019C22.5314 20.5187 22.4734 20.5237 22.4163 20.5165C22.3593 20.5093 22.3044 20.49 22.2554 20.46C22.2063 20.43 22.1642 20.3899 22.1318 20.3423C22.0994 20.2948 22.0775 20.2409 22.0675 20.1843L21.357 16.3089L19.8905 16.9756L19.5641 18.7948C19.4643 19.3521 19.096 19.4904 18.6891 19.6558C18.635 19.678 18.5768 19.6882 18.5184 19.6859C18.4601 19.6835 18.4028 19.6686 18.3508 19.6421C18.2987 19.6156 18.2529 19.5781 18.2167 19.5323C18.1804 19.4865 18.1544 19.4334 18.1405 19.3766L17.6015 17.2259L16.0895 15.6062C16.0496 15.5637 16.0192 15.513 16.0006 15.4577C15.9819 15.4024 15.9753 15.3437 15.9813 15.2857C15.9873 15.2276 16.0057 15.1715 16.0352 15.1211C16.0647 15.0708 16.1047 15.0273 16.1525 14.9938L16.3887 14.8275C16.5261 14.7277 16.6872 14.6655 16.856 14.6471C17.0249 14.6286 17.1955 14.6547 17.3512 14.7225L19.054 15.4339L20.4085 14.5589L17.5428 11.8604C17.5002 11.8211 17.4665 11.7731 17.4439 11.7197C17.4213 11.6663 17.4103 11.6087 17.4117 11.5508C17.4131 11.4928 17.4269 11.4358 17.452 11.3836C17.4772 11.3313 17.5133 11.2851 17.5577 11.2479L18.0154 10.8585C18.1696 10.7236 18.3621 10.6403 18.566 10.62C18.7699 10.5998 18.9751 10.6437 19.1529 10.7456L22.9976 12.8859L24.3416 12.0188L24.3346 12.0231ZM16.8035 19.094C11.2122 21.4653 1.50588 22.5704 0.886375 15.4908C0.881125 15.4356 0.8785 15.3805 0.875 15.3254C2.15163 21.4346 10.269 19.2375 15.4954 16.7709L16.4867 17.8331L16.8035 19.094Z" fill="#E03F3F"/>
</svg>
