<svg width="24" height="24" viewBox="0 0 24 24" fill="none" xmlns="http://www.w3.org/2000/svg">
<path d="M12.0003 4.64C14.2536 4.64 15.7736 5.61333 16.6403 6.42667L20.0269 3.12C17.9469 1.18667 15.2403 0 12.0003 0C7.30694 0 3.25361 2.69333 1.28027 6.61333L5.16027 9.62667C6.13361 6.73333 8.82694 4.64 12.0003 4.64Z" fill="#E45353"/>
<path d="M23.52 12.2658C23.52 11.2792 23.44 10.5592 23.2667 9.8125H12V14.2658H18.6133C18.48 15.3725 17.76 17.0392 16.16 18.1592L19.9467 21.0925C22.2133 18.9992 23.52 15.9192 23.52 12.2658Z" fill="#2F80ED"/>
<path d="M5.17333 14.3733C4.92 13.6266 4.77333 12.8266 4.77333 11.9999C4.77333 11.1733 4.92 10.3733 5.16 9.62661L1.28 6.61328C0.466667 8.23995 0 10.0666 0 11.9999C0 13.9333 0.466667 15.7599 1.28 17.3866L5.17333 14.3733Z" fill="#F8D16D"/>
<path d="M12.0001 23.9997C15.2401 23.9997 17.9601 22.933 19.9468 21.093L16.1601 18.1597C15.1468 18.8664 13.7868 19.3597 12.0001 19.3597C8.82679 19.3597 6.13346 17.2664 5.17346 14.373L1.29346 17.3864C3.26679 21.3064 7.30679 23.9997 12.0001 23.9997Z" fill="#5B9066"/>
</svg>
