<svg width="20" height="20" viewBox="0 0 20 20" fill="none" xmlns="http://www.w3.org/2000/svg">
<path d="M12.5249 5.00784H7.47339C7.14966 5.00769 6.82908 5.07132 6.52995 5.19511C6.23082 5.31889 5.95901 5.50039 5.73005 5.72925C5.50109 5.95811 5.31946 6.22983 5.19554 6.5289C5.07162 6.82797 5.00784 7.14853 5.00784 7.47226V12.5238C5.00769 12.8476 5.07136 13.1683 5.19522 13.4675C5.31907 13.7667 5.50067 14.0386 5.72965 14.2675C5.95863 14.4965 6.23049 14.6781 6.52969 14.802C6.82889 14.9258 7.14957 14.9895 7.47339 14.9893H12.5249C12.8488 14.9895 13.1694 14.9258 13.4686 14.802C13.7678 14.6781 14.0397 14.4965 14.2687 14.2675C14.4977 14.0386 14.6793 13.7667 14.8031 13.4675C14.927 13.1683 14.9906 12.8476 14.9905 12.5238V7.47226C14.9905 7.14853 14.9267 6.82797 14.8028 6.5289C14.6789 6.22983 14.4972 5.95811 14.2683 5.72925C14.0393 5.50039 13.7675 5.31889 13.4684 5.19511C13.1692 5.07132 12.8487 5.00769 12.5249 5.00784V5.00784ZM9.99916 13.2316C9.35984 13.2316 8.73487 13.0421 8.20329 12.6869C7.67171 12.3317 7.25739 11.8268 7.01273 11.2362C6.76808 10.6455 6.70406 9.99558 6.82879 9.36853C6.95351 8.74149 7.26138 8.16552 7.71345 7.71345C8.16552 7.26138 8.7415 6.95351 9.36854 6.82879C9.99558 6.70406 10.6455 6.76807 11.2362 7.01273C11.8268 7.25739 12.3317 7.67171 12.6869 8.20329C13.0421 8.73487 13.2316 9.35984 13.2316 9.99916C13.2304 10.8561 12.8895 11.6776 12.2835 12.2835C11.6776 12.8895 10.8561 13.2304 9.99916 13.2316V13.2316ZM13.2498 7.56429C13.0925 7.56429 12.9388 7.51764 12.808 7.43025C12.6772 7.34286 12.5752 7.21864 12.515 7.07331C12.4548 6.92798 12.4391 6.76807 12.4698 6.61378C12.5005 6.4595 12.5762 6.31779 12.6874 6.20656C12.7987 6.09533 12.9404 6.01958 13.0947 5.98889C13.2489 5.9582 13.4089 5.97395 13.5542 6.03415C13.6995 6.09435 13.8237 6.19629 13.9111 6.32708C13.9985 6.45787 14.0452 6.61164 14.0452 6.76895C14.0452 6.97988 13.9614 7.18218 13.8122 7.33134C13.6631 7.48049 13.4608 7.56429 13.2498 7.56429V7.56429ZM9.99916 8.02331C9.60838 8.02331 9.22637 8.13919 8.90144 8.3563C8.57651 8.57341 8.32326 8.882 8.17372 9.24304C8.02417 9.60408 7.98504 10.0014 8.06128 10.3846C8.13752 10.7679 8.3257 11.12 8.60203 11.3963C8.87835 11.6726 9.23042 11.8608 9.61369 11.937C9.99697 12.0133 10.3942 11.9742 10.7553 11.8246C11.1163 11.6751 11.4249 11.4218 11.642 11.0969C11.8591 10.772 11.975 10.3899 11.975 9.99916C11.975 9.47513 11.7668 8.97257 11.3963 8.60202C11.0258 8.23148 10.5232 8.02331 9.99916 8.02331V8.02331ZM12.5249 5.00784H7.47339C7.14966 5.00769 6.82908 5.07132 6.52995 5.19511C6.23082 5.31889 5.95901 5.50039 5.73005 5.72925C5.50109 5.95811 5.31946 6.22983 5.19554 6.5289C5.07162 6.82797 5.00784 7.14853 5.00784 7.47226V12.5238C5.00769 12.8476 5.07136 13.1683 5.19522 13.4675C5.31907 13.7667 5.50067 14.0386 5.72965 14.2675C5.95863 14.4965 6.23049 14.6781 6.52969 14.802C6.82889 14.9258 7.14957 14.9895 7.47339 14.9893H12.5249C12.8488 14.9895 13.1694 14.9258 13.4686 14.802C13.7678 14.6781 14.0397 14.4965 14.2687 14.2675C14.4977 14.0386 14.6793 13.7667 14.8031 13.4675C14.927 13.1683 14.9906 12.8476 14.9905 12.5238V7.47226C14.9905 7.14853 14.9267 6.82797 14.8028 6.5289C14.6789 6.22983 14.4972 5.95811 14.2683 5.72925C14.0393 5.50039 13.7675 5.31889 13.4684 5.19511C13.1692 5.07132 12.8487 5.00769 12.5249 5.00784V5.00784ZM9.99916 13.2316C9.35984 13.2316 8.73487 13.0421 8.20329 12.6869C7.67171 12.3317 7.25739 11.8268 7.01273 11.2362C6.76808 10.6455 6.70406 9.99558 6.82879 9.36853C6.95351 8.74149 7.26138 8.16552 7.71345 7.71345C8.16552 7.26138 8.7415 6.95351 9.36854 6.82879C9.99558 6.70406 10.6455 6.76807 11.2362 7.01273C11.8268 7.25739 12.3317 7.67171 12.6869 8.20329C13.0421 8.73487 13.2316 9.35984 13.2316 9.99916C13.2304 10.8561 12.8895 11.6776 12.2835 12.2835C11.6776 12.8895 10.8561 13.2304 9.99916 13.2316V13.2316ZM13.2498 7.56429C13.0925 7.56429 12.9388 7.51764 12.808 7.43025C12.6772 7.34286 12.5752 7.21864 12.515 7.07331C12.4548 6.92798 12.4391 6.76807 12.4698 6.61378C12.5005 6.4595 12.5762 6.31779 12.6874 6.20656C12.7987 6.09533 12.9404 6.01958 13.0947 5.98889C13.2489 5.9582 13.4089 5.97395 13.5542 6.03415C13.6995 6.09435 13.8237 6.19629 13.9111 6.32708C13.9985 6.45787 14.0452 6.61164 14.0452 6.76895C14.0452 6.97988 13.9614 7.18218 13.8122 7.33134C13.6631 7.48049 13.4608 7.56429 13.2498 7.56429V7.56429ZM9.99916 8.02331C9.60838 8.02331 9.22637 8.13919 8.90144 8.3563C8.57651 8.57341 8.32326 8.882 8.17372 9.24304C8.02417 9.60408 7.98504 10.0014 8.06128 10.3846C8.13752 10.7679 8.3257 11.12 8.60203 11.3963C8.87835 11.6726 9.23042 11.8608 9.61369 11.937C9.99697 12.0133 10.3942 11.9742 10.7553 11.8246C11.1163 11.6751 11.4249 11.4218 11.642 11.0969C11.8591 10.772 11.975 10.3899 11.975 9.99916C11.975 9.47513 11.7668 8.97257 11.3963 8.60202C11.0258 8.23148 10.5232 8.02331 9.99916 8.02331V8.02331ZM19.6569 3.57623C19.5683 2.74845 19.1989 1.97597 18.6101 1.38741C18.0214 0.798845 17.2488 0.429713 16.421 0.341472C12.1534 -0.113824 7.84948 -0.113824 3.58191 0.341472C2.75328 0.428737 1.97962 0.797438 1.38993 1.38609C0.800249 1.97474 0.430191 2.74776 0.341472 3.57623C-0.113824 7.8438 -0.113824 12.1477 0.341472 16.4153C0.428539 17.2443 0.797296 18.0183 1.3862 18.6083C1.9751 19.1982 2.74852 19.5683 3.57737 19.6568C7.84482 20.1144 12.149 20.1144 16.4164 19.6568C17.2454 19.5695 18.0193 19.2005 18.6091 18.6114C19.1988 18.0222 19.5686 17.2487 19.6569 16.4198C20.1125 12.1507 20.1125 7.8453 19.6569 3.57623V3.57623ZM16.2483 12.5238C16.2477 13.5112 15.8552 14.458 15.1571 15.1563C14.459 15.8546 13.5123 16.2473 12.5249 16.2483H7.47339C6.48608 16.247 5.53956 15.8542 4.84153 15.156C4.1435 14.4577 3.75097 13.5111 3.75007 12.5238V7.47226C3.75127 6.48524 4.14397 5.53902 4.842 4.8412C5.54003 4.14338 6.48638 3.75097 7.47339 3.75007H12.5249C13.5119 3.75097 14.4583 4.14338 15.1563 4.8412C15.8544 5.53902 16.2471 6.48524 16.2483 7.47226V12.5238ZM12.5249 5.00784H7.47339C7.14966 5.00769 6.82908 5.07132 6.52995 5.19511C6.23082 5.31889 5.95901 5.50039 5.73005 5.72925C5.50109 5.95811 5.31946 6.22983 5.19554 6.5289C5.07162 6.82797 5.00784 7.14853 5.00784 7.47226V12.5238C5.00769 12.8476 5.07136 13.1683 5.19522 13.4675C5.31907 13.7667 5.50067 14.0386 5.72965 14.2675C5.95863 14.4965 6.23049 14.6781 6.52969 14.802C6.82889 14.9258 7.14957 14.9895 7.47339 14.9893H12.5249C12.8488 14.9895 13.1694 14.9258 13.4686 14.802C13.7678 14.6781 14.0397 14.4965 14.2687 14.2675C14.4977 14.0386 14.6793 13.7667 14.8031 13.4675C14.927 13.1683 14.9906 12.8476 14.9905 12.5238V7.47226C14.9905 7.14853 14.9267 6.82797 14.8028 6.5289C14.6789 6.22983 14.4972 5.95811 14.2683 5.72925C14.0393 5.50039 13.7675 5.31889 13.4684 5.19511C13.1692 5.07132 12.8487 5.00769 12.5249 5.00784V5.00784ZM9.99916 13.2316C9.35984 13.2316 8.73487 13.0421 8.20329 12.6869C7.67171 12.3317 7.25739 11.8268 7.01273 11.2362C6.76808 10.6455 6.70406 9.99558 6.82879 9.36853C6.95351 8.74149 7.26138 8.16552 7.71345 7.71345C8.16552 7.26138 8.7415 6.95351 9.36854 6.82879C9.99558 6.70406 10.6455 6.76807 11.2362 7.01273C11.8268 7.25739 12.3317 7.67171 12.6869 8.20329C13.0421 8.73487 13.2316 9.35984 13.2316 9.99916C13.2304 10.8561 12.8895 11.6776 12.2835 12.2835C11.6776 12.8895 10.8561 13.2304 9.99916 13.2316V13.2316ZM13.2498 7.56429C13.0925 7.56429 12.9388 7.51764 12.808 7.43025C12.6772 7.34286 12.5752 7.21864 12.515 7.07331C12.4548 6.92798 12.4391 6.76807 12.4698 6.61378C12.5005 6.4595 12.5762 6.31779 12.6874 6.20656C12.7987 6.09533 12.9404 6.01958 13.0947 5.98889C13.2489 5.9582 13.4089 5.97395 13.5542 6.03415C13.6995 6.09435 13.8237 6.19629 13.9111 6.32708C13.9985 6.45787 14.0452 6.61164 14.0452 6.76895C14.0452 6.97988 13.9614 7.18218 13.8122 7.33134C13.6631 7.48049 13.4608 7.56429 13.2498 7.56429V7.56429ZM9.99916 8.02331C9.60838 8.02331 9.22637 8.13919 8.90144 8.3563C8.57651 8.57341 8.32326 8.882 8.17372 9.24304C8.02417 9.60408 7.98504 10.0014 8.06128 10.3846C8.13752 10.7679 8.3257 11.12 8.60203 11.3963C8.87835 11.6726 9.23042 11.8608 9.61369 11.937C9.99697 12.0133 10.3942 11.9742 10.7553 11.8246C11.1163 11.6751 11.4249 11.4218 11.642 11.0969C11.8591 10.772 11.975 10.3899 11.975 9.99916C11.975 9.47513 11.7668 8.97257 11.3963 8.60202C11.0258 8.23148 10.5232 8.02331 9.99916 8.02331V8.02331Z" fill="white"/>
</svg>
