<svg width="20" height="20" viewBox="0 0 20 20" fill="none" xmlns="http://www.w3.org/2000/svg">
<path d="M19.6585 3.57767C19.5702 2.74961 19.2009 1.9768 18.612 1.38796C18.0232 0.799122 17.2504 0.429796 16.4223 0.341501C12.1544 -0.113834 7.85014 -0.113834 3.58221 0.341501C2.75334 0.428819 1.97948 0.797715 1.38972 1.38664C0.799964 1.97557 0.429983 2.74892 0.341501 3.57767C-0.113834 7.8456 -0.113834 12.1499 0.341501 16.4178C0.429022 17.2466 0.797984 18.0203 1.38687 18.61C1.97576 19.1998 2.749 19.5698 3.57767 19.6585C7.8456 20.1138 12.1499 20.1138 16.4178 19.6585C17.2466 19.571 18.0203 19.202 18.6101 18.6131C19.1998 18.0242 19.5698 17.251 19.6585 16.4223C20.1142 12.1529 20.1142 7.8471 19.6585 3.57767V3.57767ZM6.81838 15.8269C6.81853 15.8824 6.80773 15.9373 6.78661 15.9886C6.7655 16.0399 6.73447 16.0865 6.69531 16.1257C6.65615 16.165 6.60962 16.1962 6.5584 16.2174C6.50718 16.2387 6.45227 16.2496 6.39681 16.2496H4.60033C4.54478 16.2498 4.48975 16.2389 4.43839 16.2177C4.38704 16.1966 4.34038 16.1654 4.3011 16.1261C4.26182 16.0869 4.23069 16.0402 4.2095 15.9889C4.18831 15.9375 4.17748 15.8825 4.17763 15.8269V8.29556C4.17763 8.18345 4.22216 8.07594 4.30144 7.99666C4.38071 7.91739 4.48822 7.87286 4.60033 7.87286H6.39681C6.50872 7.87316 6.61595 7.91783 6.69497 7.99707C6.774 8.0763 6.81838 8.18365 6.81838 8.29556V15.8269ZM5.498 7.15926C5.1609 7.15926 4.83136 7.0593 4.55107 6.87201C4.27077 6.68473 4.05231 6.41853 3.92331 6.10708C3.7943 5.79564 3.76055 5.45293 3.82631 5.1223C3.89208 4.79167 4.05441 4.48797 4.29278 4.2496C4.53115 4.01123 4.83485 3.8489 5.16548 3.78313C5.49611 3.71737 5.83882 3.75112 6.15026 3.88013C6.46171 4.00913 6.72791 4.22759 6.91519 4.50789C7.10248 4.78818 7.20244 5.11772 7.20244 5.45482C7.20244 5.90687 7.02287 6.3404 6.70323 6.66005C6.38358 6.97969 5.95005 7.15926 5.498 7.15926ZM16.2087 15.8565C16.2089 15.9075 16.1989 15.9581 16.1794 16.0054C16.16 16.0526 16.1313 16.0955 16.0952 16.1316C16.0591 16.1677 16.0162 16.1963 15.969 16.2158C15.9218 16.2353 15.8712 16.2452 15.8201 16.2451H13.8884C13.8373 16.2452 13.7867 16.2353 13.7395 16.2158C13.6923 16.1963 13.6494 16.1677 13.6133 16.1316C13.5772 16.0955 13.5485 16.0526 13.5291 16.0054C13.5096 15.9581 13.4996 15.9075 13.4998 15.8565V12.3283C13.4998 11.801 13.6543 10.0193 12.1215 10.0193C10.934 10.0193 10.692 11.2386 10.6443 11.7863V15.861C10.6443 15.9631 10.6041 16.0611 10.5325 16.1338C10.4608 16.2065 10.3634 16.2481 10.2613 16.2496H8.39555C8.34457 16.2496 8.2941 16.2396 8.24701 16.22C8.19993 16.2005 8.15716 16.1718 8.12116 16.1357C8.08517 16.0996 8.05665 16.0568 8.03725 16.0096C8.01784 15.9625 8.00793 15.912 8.00808 15.861V8.26261C8.00793 8.21163 8.01784 8.16112 8.03725 8.11398C8.05665 8.06683 8.08517 8.02399 8.12116 7.98788C8.15716 7.95178 8.19993 7.92314 8.24701 7.9036C8.2941 7.88405 8.34457 7.87399 8.39555 7.87399H10.2613C10.3644 7.87399 10.4633 7.91494 10.5361 7.98782C10.609 8.0607 10.65 8.15954 10.65 8.26261V8.91938C11.0908 8.25692 11.7442 7.74787 13.1384 7.74787C16.2269 7.74787 16.2064 10.6318 16.2064 12.2158L16.2087 15.8565Z" fill="white"/>
</svg>
