<svg width="20" height="20" viewBox="0 0 20 20" fill="none" xmlns="http://www.w3.org/2000/svg">
<path d="M16.4223 19.6585C12.1544 20.1138 7.85014 20.1138 3.58221 19.6585C2.75342 19.571 1.97967 19.202 1.38995 18.6131C0.800232 18.0242 0.430185 17.251 0.341501 16.4223C-0.113834 12.1544 -0.113834 7.85014 0.341501 3.58221C0.429022 2.75342 0.797984 1.97967 1.38687 1.38995C1.97576 0.800232 2.749 0.430185 3.57767 0.341501C7.8456 -0.113834 12.1499 -0.113834 16.4178 0.341501C17.2466 0.429022 18.0203 0.797984 18.6101 1.38687C19.1998 1.97576 19.5698 2.749 19.6585 3.57767C20.1138 7.8456 20.1138 12.1499 19.6585 16.4178C19.571 17.2466 19.202 18.0203 18.6131 18.6101C18.0242 19.1998 17.251 19.5698 16.4223 19.6585Z" fill="white"/>
<path d="M8.49181 16.2492C7.43402 16.2492 6.41956 15.829 5.67159 15.0811C4.92362 14.3331 4.50342 13.3186 4.50342 12.2608C4.50342 11.2031 4.92362 10.1886 5.67159 9.44062C6.41956 8.69265 7.43402 8.27245 8.49181 8.27245H9.46561V10.2189H8.49181C8.08728 10.2189 7.69184 10.3389 7.35549 10.5636C7.01913 10.7884 6.75698 11.1078 6.60217 11.4815C6.44737 11.8553 6.40686 12.2665 6.48578 12.6633C6.5647 13.06 6.7595 13.4245 7.04554 13.7105C7.33159 13.9966 7.69603 14.1914 8.09279 14.2703C8.48954 14.3492 8.90079 14.3087 9.27452 14.1539C9.64826 13.9991 9.9677 13.7369 10.1924 13.4006C10.4172 13.0642 10.5371 12.6688 10.5371 12.2643V3.75H12.4836V4.72267C12.4836 5.26512 12.6991 5.78536 13.0827 6.16893C13.4662 6.55251 13.9865 6.768 14.5289 6.768H15.5027V8.71106H14.5221C13.8012 8.7121 13.0939 8.5156 12.4768 8.14291V12.2608C12.4759 13.3178 12.0559 14.3312 11.3088 15.0789C10.5618 15.8265 9.54873 16.2474 8.49181 16.2492Z" fill="#302E56"/>
</svg>
