<svg width="368" height="558" viewBox="0 0 368 558" fill="none" xmlns="http://www.w3.org/2000/svg">
<path d="M0 0H356C362.627 0 368 5.37258 368 12V546C368 552.627 362.627 558 356 558H0V0Z" fill="url(#paint0_linear_769_19614)"/>
<mask id="mask0_769_19614" style="mask-type:alpha" maskUnits="userSpaceOnUse" x="0" y="0" width="368" height="558">
<path d="M0 0H356C362.627 0 368 5.37258 368 12V546C368 552.627 362.627 558 356 558H0V0Z" fill="url(#paint1_linear_769_19614)"/>
</mask>
<g mask="url(#mask0_769_19614)">
<path d="M341.896 95.378C342.924 92.5502 342.811 89.4333 341.58 86.6875C340.35 83.9418 338.099 81.7826 335.305 80.6674C332.51 79.5522 329.391 79.5685 326.609 80.7128C323.826 81.8571 321.598 84.0396 320.396 86.798C312.646 72.868 295.296 63.878 280.506 64.048C277.376 64.048 274.156 63.718 271.216 64.788C266.726 66.428 263.476 70.548 261.876 75.048C260.276 79.548 260.116 84.428 260.236 89.208C254.236 85.1386 247.103 83.0669 239.856 83.288C228.626 83.668 216.976 91.138 215.176 102.238C214.62 105.627 215.39 109.101 217.326 111.938C229.206 129.128 337.466 123.188 364.176 116.748C368.576 115.688 373.506 113.908 375.106 109.678C376.406 106.238 374.896 102.208 372.206 99.678C369.516 97.148 365.886 95.948 362.296 95.208C355.495 93.815 348.472 93.9208 341.716 95.518" fill="url(#paint2_linear_769_19614)"/>
<path d="M80.6981 243.007H80.2023C77.3087 225.432 61.9873 217 43.5041 217C25.0208 217 9.70758 225.448 6.81399 243.048C6.6433 243.048 6.48075 243.048 6.31006 243.048C-9.32834 243.048 -22 248.207 -22 263.782C-22 279.358 -9.32834 287.02 6.31006 287.02C11.4719 287.017 16.5334 285.599 20.9406 282.921C27.9863 286.265 35.692 288 43.4959 288C51.2999 288 59.0056 286.265 66.0513 282.921C70.4585 285.599 75.52 287.017 80.6818 287.02C96.3202 287.02 109 279.366 109 263.782C109 248.199 96.3202 243.048 80.6818 243.048" fill="url(#paint3_linear_769_19614)"/>
<g filter="url(#filter0_f_769_19614)">
<path d="M-3.48353 126.069L-5.21567 134.707C-5.24449 134.849 -5.23809 134.996 -5.19702 135.135C-5.15595 135.274 -5.08146 135.401 -4.98007 135.504C-4.87868 135.608 -4.75348 135.685 -4.6154 135.729C-4.47733 135.773 -4.3306 135.782 -4.18803 135.757L6.25068 133.899C6.25068 133.899 0.349558 126.681 0.259686 126.84C0.169814 126.999 -3.48353 126.069 -3.48353 126.069Z" fill="#9BA3AA"/>
<path d="M23.2203 122.663C17.5343 121.877 -0.944416 119.556 -7.94274 118.679C-8.14587 118.653 -8.35204 118.691 -8.53314 118.786C-8.71425 118.882 -8.86148 119.031 -8.95475 119.213C-9.04801 119.396 -9.08279 119.602 -9.05433 119.805C-9.02587 120.008 -8.93556 120.197 -8.79571 120.346L-3.4755 126.074L-5.20441 134.688C-5.23731 134.847 -5.22635 135.013 -5.1727 135.167C-5.11905 135.321 -5.02471 135.457 -4.89971 135.562C-4.70286 135.728 -1.03417 129.981 -1.03417 129.981C-1.03417 129.981 2.92302 138.876 4.81024 143.091C4.91665 143.329 5.08174 143.537 5.29011 143.694C5.49848 143.852 5.74334 143.954 6.00183 143.991C6.26033 144.028 6.52404 143.999 6.76837 143.907C7.01269 143.815 7.22966 143.662 7.39904 143.463L23.8003 124.211C23.9104 124.083 23.984 123.928 24.0135 123.761C24.043 123.595 24.0273 123.424 23.968 123.266C23.9087 123.107 23.8081 122.968 23.6765 122.862C23.545 122.756 23.3874 122.687 23.2203 122.663Z" fill="#E7EFF6"/>
<path d="M-4.90541 135.554C-4.70857 135.72 -1.03987 129.974 -1.03987 129.974L16.1031 125.776C16.1263 125.77 16.1465 125.756 16.16 125.736C16.1734 125.716 16.1791 125.692 16.1761 125.668C16.1731 125.644 16.1616 125.622 16.1437 125.606C16.1257 125.59 16.1026 125.581 16.0786 125.581L-3.47949 126.072L-5.20841 134.686C-5.24032 134.844 -5.22904 135.009 -5.17574 135.161C-5.12243 135.314 -5.02907 135.45 -4.90541 135.554Z" fill="#C9CFD6"/>
</g>
</g>
<path d="M48.295 445.237C92.7231 430.469 144.924 390.026 143.531 345.863C142.958 328.037 132.963 312.042 113.66 305.253C89.2625 296.689 72.4037 317.418 84.5563 336.598C104.512 368.104 163.091 377.048 201.343 364.788C223.452 357.733 241.228 342.082 243.204 321.405" stroke="#B2C4D3" stroke-width="2" stroke-miterlimit="10" stroke-dasharray="5 5"/>
<path d="M237.335 293.383L244.178 314.313C244.29 314.658 244.484 314.97 244.744 315.222C245.004 315.474 245.322 315.658 245.67 315.759C246.018 315.86 246.385 315.873 246.74 315.8C247.094 315.726 247.425 315.566 247.704 315.334L268.143 298.466C268.143 298.466 246.429 290.004 246.429 290.461C246.429 290.918 237.335 293.383 237.335 293.383Z" fill="#D68055"/>
<path d="M291.273 253.159C277.931 258.434 234.858 276.086 218.549 282.777C218.075 282.97 217.672 283.305 217.395 283.735C217.118 284.166 216.981 284.671 217.002 285.182C217.023 285.694 217.201 286.186 217.512 286.593C217.823 286.999 218.252 287.3 218.741 287.454L237.357 293.383L244.178 314.256C244.302 314.644 244.53 314.991 244.836 315.26C245.142 315.529 245.515 315.711 245.915 315.785C246.547 315.903 247.472 298.889 247.472 298.889C247.472 298.889 267.014 313.387 276.3 320.242C276.825 320.63 277.439 320.879 278.086 320.966C278.733 321.052 279.392 320.974 280 320.737C280.608 320.501 281.147 320.114 281.565 319.613C281.984 319.112 282.269 318.513 282.393 317.872L294.437 255.816C294.519 255.402 294.489 254.973 294.349 254.575C294.208 254.177 293.964 253.824 293.64 253.552C293.317 253.281 292.927 253.101 292.51 253.032C292.094 252.963 291.666 253.007 291.273 253.159Z" fill="#FFD2BD"/>
<path d="M245.893 315.774C246.525 315.893 247.451 298.878 247.451 298.878L279.607 268.68C279.65 268.638 279.676 268.582 279.681 268.522C279.685 268.462 279.668 268.402 279.633 268.354C279.597 268.306 279.545 268.272 279.486 268.26C279.427 268.247 279.366 268.256 279.313 268.285L237.347 293.384L244.167 314.257C244.293 314.641 244.519 314.985 244.823 315.252C245.126 315.519 245.496 315.699 245.893 315.774Z" fill="#FFBC99"/>
<g filter="url(#filter1_f_769_19614)">
<path d="M169.516 252.069L167.784 260.707C167.756 260.849 167.762 260.996 167.803 261.135C167.844 261.274 167.919 261.401 168.02 261.504C168.121 261.608 168.247 261.685 168.385 261.729C168.523 261.773 168.669 261.782 168.812 261.757L179.251 259.899C179.251 259.899 173.35 252.681 173.26 252.84C173.17 252.999 169.516 252.069 169.516 252.069Z" fill="#D68055"/>
<path d="M196.22 248.663C190.534 247.877 172.056 245.556 165.057 244.679C164.854 244.653 164.648 244.691 164.467 244.786C164.286 244.882 164.139 245.031 164.045 245.213C163.952 245.396 163.917 245.602 163.946 245.805C163.974 246.008 164.064 246.197 164.204 246.346L169.524 252.074L167.796 260.688C167.763 260.847 167.774 261.013 167.827 261.167C167.881 261.321 167.975 261.457 168.1 261.562C168.297 261.728 171.966 255.981 171.966 255.981C171.966 255.981 175.923 264.876 177.81 269.091C177.917 269.329 178.082 269.537 178.29 269.694C178.498 269.852 178.743 269.954 179.002 269.991C179.26 270.028 179.524 269.999 179.768 269.907C180.013 269.815 180.23 269.662 180.399 269.463L196.8 250.211C196.91 250.083 196.984 249.928 197.013 249.761C197.043 249.595 197.027 249.424 196.968 249.266C196.909 249.107 196.808 248.968 196.677 248.862C196.545 248.756 196.387 248.687 196.22 248.663Z" fill="#FFD2BD"/>
<path d="M168.095 261.554C168.291 261.72 171.96 255.974 171.96 255.974L189.103 251.776C189.126 251.77 189.147 251.756 189.16 251.736C189.173 251.716 189.179 251.692 189.176 251.668C189.173 251.644 189.162 251.622 189.144 251.606C189.126 251.59 189.103 251.581 189.079 251.581L169.521 252.072L167.792 260.686C167.76 260.844 167.771 261.009 167.824 261.161C167.878 261.314 167.971 261.45 168.095 261.554Z" fill="#FFBC99"/>
</g>
<g filter="url(#filter2_f_769_19614)">
<path d="M306.516 168.069L304.784 176.707C304.756 176.849 304.762 176.996 304.803 177.135C304.844 177.274 304.919 177.401 305.02 177.504C305.121 177.608 305.247 177.685 305.385 177.729C305.523 177.773 305.669 177.782 305.812 177.757L316.251 175.899C316.251 175.899 310.35 168.681 310.26 168.84C310.17 168.999 306.516 168.069 306.516 168.069Z" fill="#9BA3AA"/>
<path d="M333.22 164.663C327.534 163.877 309.056 161.556 302.057 160.679C301.854 160.653 301.648 160.691 301.467 160.786C301.286 160.882 301.139 161.031 301.045 161.213C300.952 161.396 300.917 161.602 300.946 161.805C300.974 162.008 301.064 162.197 301.204 162.346L306.524 168.074L304.796 176.688C304.763 176.847 304.774 177.013 304.827 177.167C304.881 177.321 304.975 177.457 305.1 177.562C305.297 177.728 308.966 171.981 308.966 171.981C308.966 171.981 312.923 180.876 314.81 185.091C314.917 185.329 315.082 185.537 315.29 185.694C315.498 185.852 315.743 185.954 316.002 185.991C316.26 186.028 316.524 185.999 316.768 185.907C317.013 185.815 317.23 185.662 317.399 185.463L333.8 166.211C333.91 166.083 333.984 165.928 334.013 165.761C334.043 165.595 334.027 165.424 333.968 165.266C333.909 165.107 333.808 164.968 333.677 164.862C333.545 164.756 333.387 164.687 333.22 164.663Z" fill="#E7EFF6"/>
<path d="M305.095 177.554C305.291 177.72 308.96 171.974 308.96 171.974L326.103 167.776C326.126 167.77 326.147 167.756 326.16 167.736C326.173 167.716 326.179 167.692 326.176 167.668C326.173 167.644 326.162 167.622 326.144 167.606C326.126 167.59 326.103 167.581 326.079 167.581L306.521 168.072L304.792 176.686C304.76 176.844 304.771 177.009 304.824 177.161C304.878 177.314 304.971 177.45 305.095 177.554Z" fill="#C9CFD6"/>
</g>
<g filter="url(#filter3_f_769_19614)">
<path d="M225.31 431.51L224.022 437.936C224 438.041 224.005 438.151 224.035 438.254C224.066 438.357 224.121 438.452 224.197 438.529C224.272 438.606 224.365 438.663 224.468 438.696C224.571 438.728 224.68 438.735 224.786 438.716L232.551 437.335C232.551 437.335 228.161 431.965 228.095 432.083C228.028 432.202 225.31 431.51 225.31 431.51Z" fill="#D68055"/>
<path d="M245.175 428.976C240.945 428.391 227.199 426.664 221.993 426.012C221.842 425.993 221.689 426.021 221.554 426.092C221.419 426.163 221.31 426.274 221.24 426.41C221.171 426.545 221.145 426.699 221.166 426.85C221.188 427.001 221.255 427.141 221.359 427.253L225.316 431.513L224.03 437.921C224.006 438.039 224.014 438.163 224.054 438.277C224.094 438.392 224.164 438.493 224.257 438.571C224.403 438.694 227.132 434.42 227.132 434.42C227.132 434.42 230.076 441.036 231.48 444.171C231.559 444.349 231.682 444.503 231.837 444.62C231.992 444.738 232.174 444.814 232.366 444.841C232.559 444.869 232.755 444.847 232.936 444.779C233.118 444.71 233.28 444.597 233.406 444.449L245.606 430.127C245.688 430.032 245.743 429.917 245.765 429.793C245.787 429.669 245.775 429.542 245.731 429.424C245.687 429.306 245.612 429.203 245.514 429.124C245.416 429.045 245.299 428.994 245.175 428.976Z" fill="#FFD2BD"/>
<path d="M224.253 438.565C224.399 438.688 227.128 434.413 227.128 434.413L239.881 431.291C239.898 431.287 239.913 431.276 239.923 431.261C239.933 431.246 239.937 431.228 239.935 431.211C239.933 431.193 239.924 431.176 239.911 431.165C239.898 431.153 239.88 431.146 239.862 431.146L225.314 431.511L224.028 437.919C224.004 438.037 224.012 438.159 224.052 438.273C224.092 438.386 224.161 438.487 224.253 438.565Z" fill="#FFBC99"/>
</g>
<defs>
<filter id="filter0_f_769_19614" x="-11.0645" y="116.672" width="37.0928" height="29.3359" filterUnits="userSpaceOnUse" color-interpolation-filters="sRGB">
<feFlood flood-opacity="0" result="BackgroundImageFix"/>
<feBlend mode="normal" in="SourceGraphic" in2="BackgroundImageFix" result="shape"/>
<feGaussianBlur stdDeviation="1" result="effect1_foregroundBlur_769_19614"/>
</filter>
<filter id="filter1_f_769_19614" x="161.936" y="242.672" width="37.0928" height="29.3359" filterUnits="userSpaceOnUse" color-interpolation-filters="sRGB">
<feFlood flood-opacity="0" result="BackgroundImageFix"/>
<feBlend mode="normal" in="SourceGraphic" in2="BackgroundImageFix" result="shape"/>
<feGaussianBlur stdDeviation="1" result="effect1_foregroundBlur_769_19614"/>
</filter>
<filter id="filter2_f_769_19614" x="298.936" y="158.672" width="37.0928" height="29.3359" filterUnits="userSpaceOnUse" color-interpolation-filters="sRGB">
<feFlood flood-opacity="0" result="BackgroundImageFix"/>
<feBlend mode="normal" in="SourceGraphic" in2="BackgroundImageFix" result="shape"/>
<feGaussianBlur stdDeviation="1" result="effect1_foregroundBlur_769_19614"/>
</filter>
<filter id="filter3_f_769_19614" x="219.159" y="424.006" width="28.6162" height="22.8477" filterUnits="userSpaceOnUse" color-interpolation-filters="sRGB">
<feFlood flood-opacity="0" result="BackgroundImageFix"/>
<feBlend mode="normal" in="SourceGraphic" in2="BackgroundImageFix" result="shape"/>
<feGaussianBlur stdDeviation="1" result="effect1_foregroundBlur_769_19614"/>
</filter>
<linearGradient id="paint0_linear_769_19614" x1="184" y1="0" x2="184" y2="558" gradientUnits="userSpaceOnUse">
<stop stop-color="#CDDAE7"/>
<stop offset="1" stop-color="#F7F8FA"/>
</linearGradient>
<linearGradient id="paint1_linear_769_19614" x1="184" y1="0" x2="184" y2="558" gradientUnits="userSpaceOnUse">
<stop stop-color="#CDDAE7"/>
<stop offset="1" stop-color="#F7F8FA"/>
</linearGradient>
<linearGradient id="paint2_linear_769_19614" x1="215" y1="101.5" x2="376" y2="106" gradientUnits="userSpaceOnUse">
<stop stop-color="white"/>
<stop offset="1" stop-color="white" stop-opacity="0"/>
</linearGradient>
<linearGradient id="paint3_linear_769_19614" x1="-22" y1="263" x2="109" y2="266" gradientUnits="userSpaceOnUse">
<stop stop-color="white"/>
<stop offset="1" stop-color="white" stop-opacity="0.35"/>
</linearGradient>
</defs>
</svg>
