<svg width="42" height="20" viewBox="0 0 42 20" fill="none" xmlns="http://www.w3.org/2000/svg">
    <path fill-rule="evenodd" clip-rule="evenodd" d="M5.22249 12.8212C5.89205 12.1532 6.77249 11.738 7.71383 11.6462C8.65516 11.5545 9.59922 11.7919 10.3852 12.318C11.1711 12.8441 11.7504 13.6264 12.0243 14.5317C12.2982 15.437 12.2498 16.4092 11.8874 17.2828C11.525 18.1564 10.871 18.8773 10.0367 19.3229C9.20242 19.7684 8.23939 19.9109 7.31181 19.7262C6.38423 19.5415 5.54947 19.0409 4.94952 18.3097C4.34958 17.5786 4.02156 16.6621 4.02148 15.7163C4.02333 14.6304 4.45516 13.5895 5.22249 12.8212ZM30.9803 12.8212C31.6499 12.1532 32.5302 11.738 33.4715 11.6462C34.4129 11.5545 35.3569 11.7919 36.1429 12.318C36.9288 12.8441 37.5081 13.6264 37.782 14.5317C38.0559 15.437 38.0076 16.4092 37.6451 17.2828C37.2827 18.1564 36.6287 18.8773 35.7944 19.3229C34.9601 19.7684 33.9972 19.9109 33.0696 19.7262C32.1421 19.5415 31.3072 19.0409 30.7072 18.3097C30.1073 17.5786 29.7794 16.6621 29.7793 15.7163C29.7812 14.6304 30.213 13.5895 30.9803 12.8212ZM33.8805 14.2424C33.5891 14.243 33.3045 14.3298 33.0625 14.4921C32.8204 14.6544 32.632 14.8847 32.5208 15.1541C32.4097 15.4234 32.3809 15.7197 32.438 16.0054C32.4952 16.2911 32.6357 16.5535 32.842 16.7593C33.0482 16.9652 33.3108 17.1053 33.5966 17.1619C33.8824 17.2186 34.1786 17.1893 34.4478 17.0776C34.7169 16.966 34.947 16.7771 35.1088 16.5348C35.2707 16.2925 35.357 16.0077 35.357 15.7163C35.3568 15.5225 35.3186 15.3307 35.2443 15.1518C35.17 14.9728 35.0612 14.8103 34.9241 14.6734C34.787 14.5366 34.6243 14.4281 34.4452 14.3541C34.2661 14.2802 34.0743 14.2422 33.8805 14.2424ZM8.1228 14.2424C7.83142 14.243 7.54677 14.3298 7.30474 14.4921C7.06272 14.6544 6.87423 14.8847 6.76308 15.1541C6.65194 15.4234 6.62303 15.7197 6.6802 16.0054C6.73736 16.2911 6.87802 16.5535 7.08425 16.7593C7.29047 16.9652 7.55308 17.1053 7.83891 17.1619C8.12473 17.2186 8.4209 17.1893 8.69005 17.0776C8.95921 16.966 9.18918 16.7771 9.35101 16.5348C9.51284 16.2925 9.59924 16.0077 9.59925 15.7163C9.59913 15.5225 9.56086 15.3307 9.48659 15.1518C9.41231 14.9728 9.3035 14.8103 9.16639 14.6734C9.02928 14.5366 8.86655 14.4281 8.68748 14.3541C8.50842 14.2802 8.31654 14.2422 8.1228 14.2424Z" fill="#E03F3F"/>
    <path fill-rule="evenodd" clip-rule="evenodd" d="M10.2003 4.97247C9.91962 5.46638 9.66255 5.96728 9.46603 6.41031C10.5828 6.47786 11.7943 6.56384 13.0777 6.6542C14.6437 6.76562 16.3159 6.88405 17.9906 6.98318L17.7186 1.92304C16.2658 1.92304 14.7051 2.0985 13.2594 2.23009C12.737 2.31346 12.2364 2.49951 11.7865 2.77751C11.7663 2.79681 11.7452 2.81525 11.7224 2.83279C11.115 3.47003 10.6018 4.19082 10.1985 4.97333L10.2003 4.97247ZM19.0353 1.94762L19.3109 7.05686C21.8682 7.19021 24.3745 7.26127 26.4668 7.17442C27.2972 7.14787 28.1225 7.03289 28.9285 6.83141C29.1238 6.77994 29.3081 6.72408 29.4812 6.66384C28.3302 5.65699 27.1158 4.72487 25.8457 3.87322C24.9252 3.20135 23.8879 2.70635 22.7866 2.41343C21.5476 2.17501 20.2942 2.01968 19.0345 1.94847L19.0353 1.94762ZM12.3795 0.415005C14.8359 -0.254357 20.9882 -0.0385491 23.3551 0.528172C24.6292 0.896917 25.8342 1.47216 26.9221 2.23098C28.5416 3.32292 30.079 4.53212 31.5217 5.84886C33.2188 6.08079 34.8934 6.45556 36.5275 6.96915C37.9857 7.40163 39.3819 8.02084 40.6814 8.81142C40.8244 8.89238 40.9447 9.00802 41.0313 9.14768C41.1179 9.28734 41.168 9.44654 41.177 9.61063L41.1945 9.91942L39.6067 9.62816C39.5224 9.61267 39.4358 9.61395 39.352 9.63191C39.2681 9.64987 39.1887 9.68414 39.1181 9.73281C39.0475 9.78149 38.9871 9.84361 38.9405 9.91559C38.8939 9.98757 38.862 10.068 38.8465 10.1523C38.831 10.2367 38.8323 10.3232 38.8502 10.4071C38.8682 10.4909 38.9024 10.5704 38.9511 10.641C38.9998 10.7116 39.0619 10.7719 39.1339 10.8185C39.2059 10.8651 39.2864 10.897 39.3707 10.9125L41.0436 11.2196C41.1182 11.2325 41.1945 11.2325 41.2691 11.2196L41.413 13.7277C41.5678 13.7952 41.7024 13.9016 41.8039 14.0366C41.9053 14.1716 41.9702 14.3305 41.992 14.498V15.3164C42.0087 15.444 42 15.5737 41.9664 15.6979C41.9329 15.8222 41.8752 15.9386 41.7967 16.0405C41.7182 16.1424 41.6202 16.2279 41.5086 16.2919C41.397 16.356 41.274 16.3975 41.1463 16.4139L39.3786 16.649C39.5138 15.8602 39.4777 15.0516 39.2728 14.2779C39.0679 13.5043 38.6989 12.7839 38.1909 12.1654C37.6829 11.547 37.0478 11.0451 36.3287 10.6939C35.6096 10.3426 34.8234 10.1501 34.0234 10.1296C33.2233 10.1091 32.4282 10.2609 31.692 10.5748C30.9559 10.8887 30.2959 11.3574 29.7568 11.9489C29.2178 12.5404 28.8123 13.2411 28.5679 14.0031C28.3236 14.7652 28.2461 15.571 28.3407 16.3657H13.662C13.6876 16.1482 13.7005 15.9293 13.7007 15.7103C13.6945 14.9633 13.5384 14.2251 13.2415 13.5395C12.9446 12.8539 12.5129 12.235 11.9723 11.7195C11.4316 11.2039 10.7928 10.8022 10.0939 10.5382C9.395 10.2743 8.65022 10.1534 7.90371 10.1828C7.15719 10.2122 6.42419 10.3912 5.74821 10.7093C5.07222 11.0274 4.46697 11.4781 3.96848 12.0345C3.47 12.591 3.08838 13.242 2.84629 13.9487C2.6042 14.6555 2.50657 15.4037 2.55919 16.149L0.853784 15.9218C0.596128 15.8883 0.362339 15.7539 0.203751 15.5481C0.0451625 15.3423 -0.0252318 15.082 0.00809807 14.8243V14.0058C0.0284323 13.8493 0.0863818 13.7 0.176978 13.5707C0.267575 13.4415 0.388138 13.3361 0.528339 13.2636L0.616046 9.55976C0.662173 9.56969 0.709256 9.57469 0.75644 9.57467H2.42939C2.51741 9.57789 2.60521 9.56332 2.68748 9.53186C2.76975 9.5004 2.84478 9.45268 2.90819 9.39155C2.9716 9.33042 3.02206 9.25714 3.05651 9.17608C3.09096 9.09502 3.10866 9.00784 3.10866 8.91976C3.10866 8.83169 3.09096 8.74453 3.05651 8.66347C3.02206 8.58241 2.9716 8.50911 2.90819 8.44798C2.84478 8.38685 2.76975 8.33913 2.68748 8.30767C2.60521 8.27621 2.51741 8.26166 2.42939 8.26488H0.75644C0.719412 8.26467 0.682454 8.26761 0.645924 8.27367L0.660809 7.64816C0.654216 7.43163 0.719433 7.219 0.846395 7.04348C0.973357 6.86795 1.15496 6.73941 1.36267 6.6779C1.72236 6.57262 1.83108 6.54015 1.93196 6.50945C2.90884 6.19292 3.91529 5.97601 4.93582 5.86201C6.15489 4.65075 7.44054 3.50851 8.78698 2.44063C9.84862 1.54814 11.0659 0.859353 12.3777 0.408875L12.3795 0.415005Z" fill="#003663"/>
</svg>
