<svg width="18" height="16" viewBox="0 0 18 16" fill="none" xmlns="http://www.w3.org/2000/svg">
    <path d="M16.3049 4.51566C16.3049 4.8284 16.0455 5.08774 15.7328 5.08774H2.00275C1.69001 5.08774 1.43066 4.8284 1.43066 4.51566C1.43066 4.20292 1.69001 3.94357 2.00275 3.94357H2.78078L3.07064 2.56294C3.34524 1.22808 3.91733 0 6.19041 0H11.5451C13.8182 0 14.3903 1.22808 14.6649 2.56294L14.9548 3.94357H15.7328C16.0455 3.94357 16.3049 4.20292 16.3049 4.51566Z" fill="white"/>
    <path d="M16.6329 8.8335C16.5185 7.57491 16.1829 6.23242 13.7344 6.23242H4.00128C1.55276 6.23242 1.22476 7.57491 1.10272 8.8335L0.675559 13.4788C0.622164 14.0585 0.812859 14.6383 1.2095 15.073C1.61378 15.5155 2.18586 15.7672 2.79609 15.7672H4.23011C5.46582 15.7672 5.70228 15.0578 5.85484 14.5925L6.00739 14.1348C6.18283 13.6085 6.2286 13.4788 6.9151 13.4788H10.8205C11.507 13.4788 11.5299 13.5551 11.7282 14.1348L11.8808 14.5925C12.0334 15.0578 12.2698 15.7672 13.5055 15.7672H14.9395C15.5421 15.7672 16.1219 15.5155 16.5261 15.073C16.9228 14.6383 17.1135 14.0585 17.0601 13.4788L16.6329 8.8335ZM6.57948 10.4277H4.29114C3.9784 10.4277 3.71905 10.1684 3.71905 9.85563C3.71905 9.54289 3.9784 9.28354 4.29114 9.28354H6.57948C6.89222 9.28354 7.15156 9.54289 7.15156 9.85563C7.15156 10.1684 6.89222 10.4277 6.57948 10.4277ZM13.4445 10.4277H11.1562C10.8434 10.4277 10.5841 10.1684 10.5841 9.85563C10.5841 9.54289 10.8434 9.28354 11.1562 9.28354H13.4445C13.7572 9.28354 14.0166 9.54289 14.0166 9.85563C14.0166 10.1684 13.7572 10.4277 13.4445 10.4277Z" fill="white"/>
</svg>