<svg width="54" height="54" viewBox="0 0 54 54" fill="none" xmlns="http://www.w3.org/2000/svg">
    <path d="M25.9697 44.9997H5.39918C3.41098 44.9997 1.79932 43.388 1.79932 41.3999V37.7998H29.4276L25.9697 44.9997Z" fill="#D3DCFB"/>
    <path d="M48.6028 16.2003V41.4001H5.39918C3.41098 41.4001 1.79932 39.7884 1.79932 37.8002V16.2003L27.0011 7.2002L48.6028 16.2003Z" fill="#EBF5FC"/>
    <path d="M8.15661 23.3998H6.24414C6.02036 23.3998 5.80575 23.3109 5.64752 23.1526C5.48929 22.9944 5.40039 22.7798 5.40039 22.556V20.6436C5.40039 20.4198 5.48929 20.2052 5.64752 20.0469C5.80575 19.8887 6.02036 19.7998 6.24414 19.7998H8.15661C8.38038 19.7998 8.59499 19.8887 8.75323 20.0469C8.91146 20.2052 9.00036 20.4198 9.00036 20.6436V22.556C9.00036 22.7798 8.91146 22.9944 8.75323 23.1526C8.59499 23.3109 8.38038 23.3998 8.15661 23.3998ZM15.3566 23.3998H13.4442C13.2204 23.3998 13.0058 23.3109 12.8476 23.1526C12.6893 22.9944 12.6004 22.7798 12.6004 22.556V20.6436C12.6004 20.4198 12.6893 20.2052 12.8476 20.0469C13.0058 19.8887 13.2204 19.7998 13.4442 19.7998H15.3566C15.5804 19.7998 15.795 19.8887 15.9533 20.0469C16.1115 20.2052 16.2004 20.4198 16.2004 20.6436V22.556C16.2004 22.7798 16.1115 22.9944 15.9533 23.1526C15.795 23.3109 15.5804 23.3998 15.3566 23.3998ZM22.5566 23.3998H20.6441C20.4203 23.3998 20.2057 23.3109 20.0475 23.1526C19.8892 22.9944 19.8004 22.7798 19.8004 22.556V20.6436C19.8004 20.4198 19.8892 20.2052 20.0475 20.0469C20.2057 19.8887 20.4203 19.7998 20.6441 19.7998H22.5566C22.7803 19.7998 22.995 19.8887 23.1532 20.0469C23.3114 20.2052 23.4003 20.4198 23.4003 20.6436V22.556C23.4003 22.7798 23.3114 22.9944 23.1532 23.1526C22.995 23.3109 22.7803 23.3998 22.5566 23.3998ZM29.7566 23.3998H27.8441C27.6204 23.3998 27.4058 23.3109 27.2475 23.1526C27.0893 22.9944 27.0004 22.7798 27.0004 22.556V20.6436C27.0004 20.4198 27.0893 20.2052 27.2475 20.0469C27.4058 19.8887 27.6204 19.7998 27.8441 19.7998H29.7566C29.9804 19.7998 30.195 19.8887 30.3532 20.0469C30.5115 20.2052 30.6004 20.4198 30.6004 20.6436V22.556C30.6004 22.7798 30.5115 22.9944 30.3532 23.1526C30.195 23.3109 29.9804 23.3998 29.7566 23.3998ZM36.9554 23.3998H35.0429C34.8191 23.3998 34.6045 23.3109 34.4463 23.1526C34.2881 22.9944 34.1992 22.7798 34.1992 22.556V20.6436C34.1992 20.4198 34.2881 20.2052 34.4463 20.0469C34.6045 19.8887 34.8191 19.7998 35.0429 19.7998H36.9554C37.1791 19.7998 37.3938 19.8887 37.552 20.0469C37.7102 20.2052 37.7991 20.4198 37.7991 20.6436V22.556C37.7991 22.7798 37.7102 22.9944 37.552 23.1526C37.3938 23.3109 37.1791 23.3998 36.9554 23.3998ZM44.1554 23.3998H42.2429C42.0192 23.3998 41.8046 23.3109 41.6463 23.1526C41.4881 22.9944 41.3992 22.7798 41.3992 22.556V20.6436C41.3992 20.4198 41.4881 20.2052 41.6463 20.0469C41.8046 19.8887 42.0192 19.7998 42.2429 19.7998H44.1554C44.3792 19.7998 44.5938 19.8887 44.752 20.0469C44.9103 20.2052 44.9992 20.4198 44.9992 20.6436V22.556C44.9992 22.7798 44.9103 22.9944 44.752 23.1526C44.5938 23.3109 44.3792 23.3998 44.1554 23.3998ZM8.15661 30.5997H6.24414C6.02036 30.5997 5.80575 30.5108 5.64752 30.3526C5.48929 30.1943 5.40039 29.9797 5.40039 29.7559V27.8435C5.40039 27.6197 5.48929 27.4051 5.64752 27.2469C5.80575 27.0886 6.02036 26.9997 6.24414 26.9997H8.15661C8.38038 26.9997 8.59499 27.0886 8.75323 27.2469C8.91146 27.4051 9.00036 27.6197 9.00036 27.8435V29.7559C9.00036 29.9797 8.91146 30.1943 8.75323 30.3526C8.59499 30.5108 8.38038 30.5997 8.15661 30.5997ZM15.3566 30.5997H13.4442C13.2204 30.5997 13.0058 30.5108 12.8476 30.3526C12.6893 30.1943 12.6004 29.9797 12.6004 29.7559V27.8435C12.6004 27.6197 12.6893 27.4051 12.8476 27.2469C13.0058 27.0886 13.2204 26.9997 13.4442 26.9997H15.3566C15.5804 26.9997 15.795 27.0886 15.9533 27.2469C16.1115 27.4051 16.2004 27.6197 16.2004 27.8435V29.7559C16.2004 29.9797 16.1115 30.1943 15.9533 30.3526C15.795 30.5108 15.5804 30.5997 15.3566 30.5997ZM22.5566 30.5997H20.6441C20.4203 30.5997 20.2057 30.5108 20.0475 30.3526C19.8892 30.1943 19.8004 29.9797 19.8004 29.7559V27.8435C19.8004 27.6197 19.8892 27.4051 20.0475 27.2469C20.2057 27.0886 20.4203 26.9997 20.6441 26.9997H22.5566C22.7803 26.9997 22.995 27.0886 23.1532 27.2469C23.3114 27.4051 23.4003 27.6197 23.4003 27.8435V29.7559C23.4003 29.9797 23.3114 30.1943 23.1532 30.3526C22.995 30.5108 22.7803 30.5997 22.5566 30.5997ZM30.6004 30.5997V27.8997C30.6004 27.7815 30.5771 27.6645 30.5318 27.5553C30.4866 27.4461 30.4203 27.3469 30.3368 27.2633C30.2532 27.1798 30.154 27.1135 30.0448 27.0682C29.9356 27.023 29.8186 26.9997 29.7004 26.9997H27.9004C27.6617 26.9997 27.4328 27.0946 27.264 27.2633C27.0952 27.4321 27.0004 27.661 27.0004 27.8997V29.6997C27.0004 29.9384 27.0952 30.1673 27.264 30.3361C27.4328 30.5049 27.6617 30.5997 27.9004 30.5997H30.6004ZM8.15661 37.7997H6.24414C6.02036 37.7997 5.80575 37.7108 5.64752 37.5526C5.48929 37.3944 5.40039 37.1798 5.40039 36.956V35.0435C5.40039 34.8197 5.48929 34.6051 5.64752 34.4469C5.80575 34.2887 6.02036 34.1998 6.24414 34.1998H8.15661C8.38038 34.1998 8.59499 34.2887 8.75323 34.4469C8.91146 34.6051 9.00036 34.8197 9.00036 35.0435V36.956C9.00036 37.1798 8.91146 37.3944 8.75323 37.5526C8.59499 37.7108 8.38038 37.7997 8.15661 37.7997ZM15.3566 37.7997H13.4442C13.2204 37.7997 13.0058 37.7108 12.8476 37.5526C12.6893 37.3944 12.6004 37.1798 12.6004 36.956V35.0435C12.6004 34.8197 12.6893 34.6051 12.8476 34.4469C13.0058 34.2887 13.2204 34.1998 13.4442 34.1998H15.3566C15.5804 34.1998 15.795 34.2887 15.9533 34.4469C16.1115 34.6051 16.2004 34.8197 16.2004 35.0435V36.956C16.2004 37.1798 16.1115 37.3944 15.9533 37.5526C15.795 37.7108 15.5804 37.7997 15.3566 37.7997ZM22.5566 37.7997H20.6441C20.4203 37.7997 20.2057 37.7108 20.0475 37.5526C19.8892 37.3944 19.8004 37.1798 19.8004 36.956V35.0435C19.8004 34.8197 19.8892 34.6051 20.0475 34.4469C20.2057 34.2887 20.4203 34.1998 20.6441 34.1998H22.5566C22.7803 34.1998 22.995 34.2887 23.1532 34.4469C23.3114 34.6051 23.4003 34.8197 23.4003 35.0435V36.956C23.4003 37.1798 23.3114 37.3944 23.1532 37.5526C22.995 37.7108 22.7803 37.7997 22.5566 37.7997Z" fill="#3C58A0"/>
    <path d="M44.1302 19.7998H42.2687C42.1561 19.7998 42.0488 19.822 41.95 19.8609C42.1122 19.9248 42.2515 20.036 42.3497 20.1801C42.4478 20.3243 42.5004 20.4946 42.5004 20.669V22.5305C42.5004 22.8979 42.2721 23.2114 41.95 23.3386C42.0488 23.3776 42.1561 23.3998 42.2687 23.3998H44.1302C44.3607 23.3998 44.5818 23.3082 44.7449 23.1452C44.9079 22.9822 44.9995 22.7611 44.9995 22.5306V20.6691C44.9995 20.4385 44.9079 20.2175 44.7449 20.0544C44.5818 19.8914 44.3608 19.7998 44.1302 19.7998ZM36.9302 19.7998H35.0687C34.956 19.7998 34.8488 19.822 34.7499 19.8609C34.9122 19.9248 35.0515 20.036 35.1496 20.1801C35.2478 20.3243 35.3003 20.4946 35.3004 20.669V22.5305C35.3004 22.8979 35.072 23.2114 34.7499 23.3386C34.8488 23.3776 34.956 23.3998 35.0687 23.3998H36.9302C37.0443 23.3998 37.1574 23.3773 37.2628 23.3336C37.3683 23.29 37.4641 23.2259 37.5448 23.1452C37.6255 23.0645 37.6895 22.9687 37.7332 22.8632C37.7769 22.7578 37.7994 22.6447 37.7994 22.5306V20.6691C37.7994 20.5549 37.7769 20.4419 37.7332 20.3364C37.6896 20.231 37.6255 20.1351 37.5448 20.0544C37.4641 19.9737 37.3683 19.9097 37.2628 19.866C37.1574 19.8223 37.0443 19.7998 36.9302 19.7998ZM29.7314 19.7998H27.8699C27.7573 19.7998 27.65 19.822 27.5512 19.8609C27.8734 19.9881 28.1017 20.3015 28.1017 20.669V22.5305C28.1017 22.8979 27.8734 23.2114 27.5512 23.3386C27.65 23.3776 27.7573 23.3998 27.8699 23.3998H29.7314C29.9619 23.3998 30.183 23.3082 30.3461 23.1452C30.5091 22.9822 30.6007 22.7611 30.6007 22.5306V20.6691C30.6007 20.4385 30.5091 20.2175 30.3461 20.0544C30.183 19.8914 29.962 19.7998 29.7314 19.7998ZM22.5314 19.7998H20.6699C20.5572 19.7998 20.45 19.822 20.3511 19.8609C20.6733 19.9881 20.9017 20.3015 20.9017 20.669V22.5305C20.9017 22.8979 20.6733 23.2114 20.3511 23.3386C20.45 23.3776 20.5572 23.3998 20.6699 23.3998H22.5314C22.7619 23.3998 22.983 23.3082 23.146 23.1452C23.309 22.9822 23.4006 22.7611 23.4007 22.5306V20.6691C23.4006 20.4385 23.309 20.2175 23.146 20.0544C22.983 19.8914 22.7619 19.7998 22.5314 19.7998ZM15.3313 19.7998H13.4698C13.3572 19.7998 13.2499 19.822 13.1511 19.8609C13.3134 19.9248 13.4526 20.036 13.5508 20.1801C13.649 20.3243 13.7015 20.4946 13.7015 20.669V22.5305C13.7015 22.8979 13.4732 23.2114 13.1511 23.3386C13.2499 23.3776 13.3572 23.3998 13.4698 23.3998H15.3313C15.5619 23.3998 15.783 23.3082 15.946 23.1452C16.109 22.9822 16.2006 22.7611 16.2006 22.5306V20.6691C16.2006 20.4385 16.109 20.2174 15.946 20.0544C15.783 19.8914 15.5619 19.7998 15.3313 19.7998ZM8.13142 19.7998H6.2699C6.15726 19.7998 6.05 19.822 5.95117 19.8609C6.27338 19.9881 6.50172 20.3015 6.50172 20.669V22.5305C6.50172 22.8979 6.27338 23.2114 5.95117 23.3386C6.05 23.3776 6.15726 23.3998 6.2699 23.3998H8.13142C8.36195 23.3998 8.58304 23.3082 8.74605 23.1452C8.90907 22.9822 9.00067 22.7611 9.00069 22.5306V20.6691C9.00067 20.4385 8.90907 20.2175 8.74606 20.0544C8.58305 19.8914 8.36196 19.7998 8.13142 19.7998ZM8.13142 26.9998H6.2699C6.15726 26.9998 6.05 27.022 5.95117 27.0609C6.27338 27.1881 6.50172 27.5016 6.50172 27.869V29.7306C6.50172 30.0981 6.27338 30.4115 5.95117 30.5387C6.05 30.5778 6.15726 30.5999 6.2699 30.5999H8.13142C8.36195 30.5999 8.58304 30.5083 8.74605 30.3453C8.90907 30.1823 9.00067 29.9613 9.00069 29.7307V27.8691C9.00067 27.6386 8.90907 27.4175 8.74606 27.2545C8.58305 27.0915 8.36196 26.9999 8.13142 26.9998ZM8.13142 34.1999H6.2699C6.15726 34.1999 6.05 34.222 5.95117 34.2609C6.27338 34.3881 6.50172 34.7016 6.50172 35.069V36.9307C6.50172 37.2981 6.27338 37.6116 5.95117 37.7388C6.05 37.7778 6.15726 37.7999 6.2699 37.7999H8.13142C8.36195 37.7999 8.58304 37.7084 8.74605 37.5454C8.90907 37.3824 9.00067 37.1613 9.00069 36.9308V35.0691C9.00067 34.8386 8.90907 34.6175 8.74606 34.4545C8.58305 34.2915 8.36196 34.1999 8.13142 34.1999ZM15.3313 26.9998H13.4698C13.3572 26.9998 13.2499 27.022 13.1511 27.0609C13.3134 27.1248 13.4526 27.236 13.5508 27.3802C13.649 27.5243 13.7015 27.6946 13.7015 27.869V29.7306C13.7015 30.0981 13.4732 30.4115 13.1511 30.5387C13.2499 30.5778 13.3572 30.5999 13.4698 30.5999H15.3313C15.5619 30.5999 15.783 30.5083 15.946 30.3453C16.109 30.1823 16.2006 29.9613 16.2006 29.7307V27.8691C16.2006 27.6386 16.109 27.4175 15.946 27.2544C15.783 27.0914 15.5619 26.9998 15.3313 26.9998ZM15.3313 34.1999H13.4698C13.3572 34.1999 13.2499 34.222 13.1511 34.2609C13.3134 34.3248 13.4526 34.4361 13.5508 34.5802C13.649 34.7243 13.7015 34.8947 13.7015 35.069V36.9307C13.7015 37.2981 13.4732 37.6116 13.1511 37.7388C13.2499 37.7778 13.3572 37.7999 13.4698 37.7999H15.3313C15.5619 37.7999 15.783 37.7084 15.946 37.5454C16.109 37.3824 16.2006 37.1613 16.2006 36.9308V35.0691C16.2006 34.955 16.1782 34.8419 16.1345 34.7365C16.0908 34.631 16.0268 34.5352 15.9461 34.4544C15.8653 34.3737 15.7695 34.3097 15.664 34.266C15.5586 34.2223 15.4455 34.1999 15.3313 34.1999ZM22.5314 26.9998H20.6699C20.5572 26.9998 20.45 27.022 20.3511 27.0609C20.6733 27.1881 20.9017 27.5016 20.9017 27.869V29.7306C20.9017 30.0981 20.6733 30.4115 20.3511 30.5387C20.45 30.5778 20.5572 30.5999 20.6699 30.5999H22.5314C22.7619 30.5999 22.983 30.5083 23.146 30.3453C23.309 30.1823 23.4006 29.9613 23.4007 29.7307V27.8691C23.4006 27.6386 23.309 27.4175 23.146 27.2545C22.983 27.0915 22.7619 26.9999 22.5314 26.9998ZM30.6006 30.5998V27.869C30.6006 27.7549 30.5781 27.6418 30.5344 27.5364C30.4907 27.4309 30.4267 27.3351 30.346 27.2544C30.2653 27.1737 30.1694 27.1096 30.064 27.066C29.9585 27.0223 29.8455 26.9998 29.7313 26.9998H27.8698C27.7571 26.9998 27.6499 27.022 27.5511 27.0609C27.8733 27.1881 28.1016 27.5016 28.1016 27.869V29.7306C28.1016 30.0981 27.8733 30.4115 27.5511 30.5387C27.6499 30.5778 27.7571 30.5999 27.8698 30.5999H30.6006V30.5998ZM22.5314 34.1999H20.6699C20.5572 34.1999 20.45 34.222 20.3511 34.2609C20.6733 34.3881 20.9017 34.7016 20.9017 35.069V36.9307C20.9017 37.2981 20.6733 37.6116 20.3511 37.7388C20.45 37.7778 20.5572 37.7999 20.6699 37.7999H22.5314C22.7619 37.7999 22.983 37.7084 23.146 37.5454C23.309 37.3824 23.4006 37.1613 23.4007 36.9308V35.0691C23.4007 34.955 23.3782 34.842 23.3345 34.7365C23.2908 34.631 23.2268 34.5352 23.1461 34.4545C23.0653 34.3738 22.9695 34.3097 22.864 34.266C22.7586 34.2224 22.6455 34.1999 22.5314 34.1999Z" fill="#003663"/>
    <path d="M46.1021 15.1582V41.4001H48.6028V16.2001L46.1021 15.1582Z" fill="#D3DCFB"/>
    <path d="M48.6028 16.1995V7.19947C48.6028 5.21128 46.991 3.59961 45.0029 3.59961H5.39918C3.41098 3.59961 1.79932 5.21128 1.79932 7.19947V16.1995H48.6028Z" fill="#E03F3F"/>
    <path d="M13.1424 8.01447H10.7992C10.5831 8.01447 10.3759 7.92862 10.223 7.7758C10.0702 7.62299 9.98438 7.41573 9.98438 7.19962C9.98438 6.9835 10.0702 6.77624 10.223 6.62343C10.3759 6.47062 10.5831 6.38477 10.7992 6.38477H13.1424C13.3585 6.38477 13.5658 6.47062 13.7186 6.62343C13.8714 6.77624 13.9573 6.9835 13.9573 7.19962C13.9573 7.41573 13.8714 7.62299 13.7186 7.7758C13.5658 7.92862 13.3585 8.01447 13.1424 8.01447ZM18.8991 8.01447H16.5559C16.3398 8.01447 16.1325 7.92862 15.9797 7.7758C15.8269 7.62299 15.7411 7.41573 15.7411 7.19962C15.7411 6.9835 15.8269 6.77624 15.9797 6.62343C16.1325 6.47062 16.3398 6.38477 16.5559 6.38477H18.8991C19.3493 6.38477 19.714 6.74958 19.714 7.19962C19.714 7.64965 19.3493 8.01447 18.8991 8.01447ZM33.8436 8.01447H31.5003C31.2842 8.01447 31.0769 7.92862 30.9241 7.7758C30.7713 7.62299 30.6855 7.41573 30.6855 7.19962C30.6855 6.9835 30.7713 6.77624 30.9241 6.62343C31.0769 6.47062 31.2842 6.38477 31.5003 6.38477H33.8436C34.2938 6.38477 34.6585 6.74958 34.6585 7.19962C34.6585 7.64965 34.2938 8.01447 33.8436 8.01447ZM39.6004 8.01447H37.2571C37.041 8.01447 36.8337 7.92862 36.6809 7.7758C36.5281 7.62299 36.4423 7.41573 36.4423 7.19962C36.4423 6.9835 36.5281 6.77624 36.6809 6.62343C36.8337 6.47062 37.041 6.38477 37.2571 6.38477H39.6004C39.8165 6.38477 40.0238 6.47062 40.1766 6.62343C40.3294 6.77624 40.4153 6.9835 40.4153 7.19962C40.4153 7.41573 40.3294 7.62299 40.1766 7.7758C40.0238 7.92862 39.8165 8.01447 39.6004 8.01447Z" fill="#B12626"/>
    <path d="M17.0995 6.75C17.0995 7.99263 16.0922 8.99996 14.8496 8.99996C13.6069 8.99996 12.5996 7.99263 12.5996 6.75V2.24996C12.5995 1.00733 13.6068 0 14.8495 0C16.0921 0 17.0994 1.00733 17.0994 2.24996V6.75H17.0995ZM37.8007 6.75C37.8007 7.99263 36.7934 8.99996 35.5508 8.99996C34.3081 8.99996 33.3007 7.99263 33.3007 6.75V2.24996C33.3007 1.00733 34.308 0 35.5507 0C36.7933 0 37.8006 1.00733 37.8006 2.24996V6.75H37.8007Z" fill="#EBF5FC"/>
    <path d="M35.5506 0C35.0886 0 34.6596 0.139641 34.3023 0.378422C34.9061 0.781945 35.304 1.46929 35.304 2.25007V6.75C35.304 7.53068 34.9061 8.21813 34.3023 8.62165C34.6716 8.86887 35.1062 9.0006 35.5506 9.00007C36.7932 9.00007 37.8006 7.99274 37.8006 6.75011V2.24996C37.8007 1.00733 36.7933 0 35.5506 0ZM14.8494 0C14.3874 0 13.9584 0.139641 13.6011 0.378422C14.2049 0.781945 14.6028 1.46929 14.6028 2.25007V6.75C14.6028 7.53068 14.2049 8.21813 13.6011 8.62165C13.9704 8.86887 14.405 9.0006 14.8494 9.00007C16.092 9.00007 17.0994 7.99274 17.0994 6.75011V2.24996C17.0995 1.00733 16.0921 0 14.8494 0Z" fill="#D3DCFB"/>
    <path d="M45.0029 3.59961H42.5029C44.4911 3.59961 46.1028 5.21128 46.1028 7.19947V16.1996H48.6026V7.19957C48.6027 5.21138 46.9909 3.59961 45.0029 3.59961Z" fill="#B12626"/>
    <path d="M1.79932 11.7852H48.6029V13.415H1.79932V11.7852Z" fill="#B12626"/>
    <path d="M38.7012 54C46.157 54 52.2012 47.9558 52.2012 40.5C52.2012 33.0442 46.157 27 38.7012 27C31.2453 27 25.2012 33.0442 25.2012 40.5C25.2012 47.9558 31.2453 54 38.7012 54Z" fill="#4FABF7"/>
    <path d="M38.7013 50.3997C44.1689 50.3997 48.6013 45.9673 48.6013 40.4996C48.6013 35.032 44.1689 30.5996 38.7013 30.5996C33.2337 30.5996 28.8013 35.032 28.8013 40.4996C28.8013 45.9673 33.2337 50.3997 38.7013 50.3997Z" fill="#EBF5FC"/>
    <path d="M38.7011 39.5145C38.5941 39.5145 38.4881 39.4935 38.3892 39.4525C38.2904 39.4116 38.2005 39.3515 38.1249 39.2759C38.0492 39.2002 37.9892 39.1104 37.9482 39.0115C37.9073 38.9126 37.8862 38.8067 37.8862 38.6997V34.1996C37.8862 33.9835 37.9721 33.7762 38.1249 33.6234C38.2777 33.4706 38.485 33.3848 38.7011 33.3848C38.9172 33.3848 39.1245 33.4706 39.2773 33.6234C39.4301 33.7762 39.5159 33.9835 39.5159 34.1996V38.6997C39.5159 38.9158 39.4301 39.123 39.2773 39.2758C39.1245 39.4287 38.9172 39.5145 38.7011 39.5145ZM43.2011 41.3145H40.501C40.2849 41.3145 40.0776 41.2287 39.9248 41.0759C39.772 40.9231 39.6862 40.7158 39.6862 40.4997C39.6862 40.2836 39.772 40.0763 39.9248 39.9235C40.0776 39.7707 40.2849 39.6848 40.501 39.6848H43.2011C43.4172 39.6848 43.6245 39.7707 43.7773 39.9235C43.9301 40.0763 44.016 40.2836 44.016 40.4997C44.016 40.7158 43.9301 40.9231 43.7773 41.0759C43.6245 41.2287 43.4172 41.3145 43.2011 41.3145Z" fill="#3C58A0"/>
    <path d="M38.7013 27C38.2799 27 37.8633 27.0204 37.4518 27.0581C44.3217 27.6887 49.7022 33.4656 49.7022 40.5C49.7022 47.5344 44.3216 53.3113 37.4517 53.9419C37.8632 53.9796 38.2798 54 38.7012 54C46.1569 54 52.2012 47.9558 52.2012 40.5C52.2012 33.0442 46.1571 27 38.7013 27Z" fill="#1886EA"/>
    <path d="M38.7013 30.5996C38.2784 30.5996 37.8616 30.6263 37.4526 30.6778C42.3308 31.2917 46.104 35.455 46.104 40.4996C46.104 45.5443 42.3308 49.7076 37.4526 50.3215C37.8616 50.373 38.2784 50.3997 38.7013 50.3997C44.1689 50.3997 48.6013 45.9673 48.6013 40.4996C48.6013 35.032 44.1689 30.5996 38.7013 30.5996Z" fill="#D3DCFB"/>
    <path d="M38.7009 42.3003C39.695 42.3003 40.5009 41.4944 40.5009 40.5002C40.5009 39.5061 39.695 38.7002 38.7009 38.7002C37.7068 38.7002 36.9009 39.5061 36.9009 40.5002C36.9009 41.4944 37.7068 42.3003 38.7009 42.3003Z" fill="#FFDD40"/>
</svg>