<svg width="37" height="36" viewBox="0 0 37 36" fill="none" xmlns="http://www.w3.org/2000/svg">
    <path d="M0.00530676 32.5875C3.16698 31.7277 4.51506 32.4374 5.74899 33.0846C6.36832 33.4892 7.1031 33.6798 7.84098 33.6274C9.74326 33.4298 11.0992 31.6803 13.4046 31.8999C14.9094 32.1339 16.3195 32.7818 17.477 33.7714C17.6527 33.8961 17.8283 34.0217 18.004 34.1447C18.1796 34.0217 18.3553 33.8961 18.531 33.7714C19.6886 32.7819 21.0986 32.1339 22.6033 31.8999C24.9078 31.6803 26.2639 33.4298 28.167 33.6274C28.9049 33.6798 29.6397 33.4892 30.259 33.0846C31.4885 32.4374 32.8445 31.7277 36.0027 32.5875V34.344C33.1344 33.4745 32.0357 34.0507 31.0371 34.575C30.1343 35.1533 29.0625 35.4095 27.9958 35.3022C26.1514 35.1108 24.2597 33.4324 22.7623 33.5755C21.5581 33.8019 20.4352 34.3427 19.5076 35.1432C19.1765 35.3786 18.8409 35.6166 18.4747 35.8547C18.3376 35.9479 18.1761 35.9985 18.0103 36.0002C17.8445 36.002 17.6819 35.9547 17.5429 35.8643C17.1714 35.6228 16.8307 35.3813 16.4952 35.1424C15.5675 34.3419 14.4446 33.801 13.2404 33.5747C11.7474 33.4324 9.85476 35.1108 8.00694 35.3014C6.94017 35.4087 5.86843 35.1524 4.96558 34.5742C3.96701 34.0472 2.86746 33.4737 0 34.3431V32.5867L0.00530676 32.5875Z" fill="#E03F3F"/>
    <path fill-rule="evenodd" clip-rule="evenodd" d="M12.6715 10.906C13.2318 10.8665 13.7922 10.8244 14.3534 10.7892V9.11616C13.7925 9.15363 13.2318 9.19692 12.6715 9.2461V10.906ZM16.0413 10.704C17.3534 10.6566 18.6664 10.6566 19.9802 10.704V9.02482C18.6515 8.97125 17.3701 8.97125 16.0413 9.02482V10.704ZM21.6674 10.7918C22.2277 10.8269 22.7889 10.8691 23.3492 10.9087V9.24878C22.7889 9.20018 22.2283 9.15679 21.6674 9.11874V10.7918ZM5.34344 31.0274C5.37066 27.4459 5.05801 26.8435 3.06528 23.0187L2.74827 22.4092C2.65214 22.2136 2.63347 21.9889 2.696 21.7801C2.75854 21.5713 2.89765 21.3939 3.08549 21.2833C4.13323 20.6097 5.17572 19.9089 6.25245 19.2537L6.67136 12.8531C6.67398 12.7071 6.71445 12.5644 6.78881 12.4387C6.86316 12.3131 6.96883 12.2089 7.09553 12.1364L9.57748 10.7181V7.14977C9.57822 6.94073 9.65648 6.7394 9.79715 6.58478C9.93782 6.43016 10.1308 6.33324 10.3389 6.3128C12.1033 6.13715 13.5884 6.00896 14.9523 5.93168L15.1973 0.827319C15.1973 0.370633 16.4568 0 18.0077 0C18.4662 0 20.797 0.116821 20.8181 0.827319L21.0631 5.93071C22.4086 6.008 23.8735 6.13271 25.6124 6.30572C25.8331 6.31054 26.043 6.40162 26.1973 6.55937C26.3516 6.71713 26.438 6.92908 26.438 7.14977V10.7181L28.9269 12.1408C29.0469 12.2098 29.1477 12.3078 29.2201 12.4258C29.2925 12.5437 29.3342 12.678 29.3414 12.8162L29.763 19.2537C30.8614 19.9217 31.9375 20.6121 32.9914 21.3246C33.1621 21.4404 33.2844 21.6146 33.3354 21.8144C33.3864 22.0143 33.3624 22.2259 33.2681 22.4092L32.951 23.0187C30.9591 26.8435 30.6456 27.4451 30.6728 31.0274C30.2658 31.1959 29.8675 31.3847 29.4793 31.593C29.1472 31.8262 28.7513 31.9513 28.3455 31.9513C27.7968 31.8212 27.2701 31.6114 26.7822 31.3287C25.4814 30.5331 23.971 30.148 22.4481 30.2238C20.8245 30.4252 19.2875 31.069 18.0051 32.0848C16.7226 31.0689 15.1857 30.4251 13.5621 30.2238C12.0391 30.148 10.5287 30.5331 9.22793 31.3287C8.74002 31.6114 8.21332 31.8212 7.66464 31.9513C7.25883 31.9514 6.86287 31.8263 6.53081 31.593C6.1154 31.3752 5.72727 31.1855 5.33733 31.0274H5.34344ZM8.00893 18.2165C8.69045 17.8248 9.37724 17.4443 10.0693 17.0748C12.5776 15.7241 15.1437 14.4998 17.6845 13.4336C17.7879 13.3904 17.8988 13.3681 18.0108 13.3681C18.1228 13.3681 18.2337 13.3904 18.3371 13.4336C20.9351 14.5185 23.4767 15.7338 25.9523 17.0748C26.6438 17.4472 27.3305 17.8277 28.0126 18.2165L27.6956 13.3773L25.1812 11.9397C25.0521 11.8661 24.9448 11.7596 24.8701 11.6311C24.7955 11.5027 24.7561 11.3567 24.7561 11.2081V7.91383C22.0784 7.65739 20.0496 7.52831 18.0112 7.52831C15.9728 7.52831 13.9441 7.65651 11.2663 7.91383V11.2081C11.2663 11.3637 11.2232 11.5164 11.1418 11.649C11.0604 11.7817 10.9439 11.8893 10.8052 11.9599L8.32594 13.3773L8.00893 18.2165ZM12.9481 20.8187C13.355 20.7334 13.7782 20.7763 14.1597 20.9413C14.5413 21.1064 14.8623 21.3855 15.0787 21.7404C15.2952 22.0953 15.3964 22.5084 15.3684 22.9232C15.3405 23.3379 15.1848 23.7338 14.9227 24.0565C14.6607 24.3791 14.3051 24.6127 13.9049 24.7251C13.5047 24.8375 13.0795 24.8231 12.6878 24.6841C12.2961 24.545 11.957 24.2881 11.7173 23.9485C11.4775 23.6089 11.3488 23.2035 11.3489 22.7878C11.3051 22.3157 11.4481 21.8451 11.747 21.4771C12.0459 21.109 12.4771 20.8727 12.9481 20.8187ZM23.0743 20.8187C22.6675 20.7334 22.2442 20.7763 21.8627 20.9413C21.4812 21.1064 21.1601 21.3855 20.9437 21.7404C20.7273 22.0953 20.6261 22.5084 20.654 22.9232C20.682 23.3379 20.8376 23.7338 21.0997 24.0565C21.3618 24.3791 21.7174 24.6127 22.1176 24.7251C22.5178 24.8375 22.9429 24.8231 23.3347 24.6841C23.7264 24.545 24.0654 24.2881 24.3052 23.9485C24.545 23.6089 24.6736 23.2035 24.6736 22.7878C24.7173 22.3157 24.5744 21.8451 24.2754 21.4771C23.9765 21.109 23.5454 20.8727 23.0743 20.8187Z" fill="#003663"/>
</svg>
