<svg width="20" height="21" viewBox="0 0 20 21" fill="none" xmlns="http://www.w3.org/2000/svg">
    <path d="M18.0251 12.7167L17.6834 14.2667C17.0918 16.9333 15.0001 18.8333 11.9834 18.8333H8.01677C5.00011 18.8333 2.90844 16.9333 2.31677 14.2667L1.97511 12.7167C1.80844 11.9583 2.25844 11.1 2.98344 10.8083L4.16677 10.3333L8.75844 8.49167C9.15844 8.33333 9.58344 8.25 10.0001 8.25C10.4168 8.25 10.8418 8.33333 11.2418 8.49167L15.8334 10.3333L17.0168 10.8083C17.7418 11.1 18.1918 11.9583 18.0251 12.7167Z" fill="white"/>
    <path d="M15.8334 7.16602V8.36602C15.8334 8.65768 15.5334 8.86602 15.2584 8.74935L11.7001 7.32435C10.6084 6.89935 9.39175 6.89935 8.29175 7.33268L4.74175 8.75768C4.46675 8.87435 4.16675 8.66602 4.16675 8.37435V7.16602C4.16675 5.79102 5.29175 4.66602 6.66675 4.66602H13.3334C14.7084 4.66602 15.8334 5.79102 15.8334 7.16602Z" fill="white"/>
    <path d="M12.0834 4.66602H7.91675V2.99935C7.91675 2.54102 8.29175 2.16602 8.75008 2.16602H11.2501C11.7084 2.16602 12.0834 2.54102 12.0834 2.99935V4.66602Z" fill="white"/>
</svg>