<svg width="20" height="21" viewBox="0 0 20 21" fill="none" xmlns="http://www.w3.org/2000/svg">
    <path d="M16.7082 9.35781L12.8166 7.68281L11.9499 7.31615C11.8166 7.24948 11.6999 7.07448 11.6999 6.92448V4.37448C11.6999 3.57448 11.1082 2.62448 10.3916 2.25781C10.1416 2.13281 9.84155 2.13281 9.59155 2.25781C8.88322 2.62448 8.29155 3.58281 8.29155 4.38281V6.93281C8.29155 7.08281 8.17489 7.25781 8.04155 7.32448L3.29155 9.36615C2.76655 9.58281 2.34155 10.2411 2.34155 10.8078V11.9078C2.34155 12.6161 2.87489 12.9661 3.53322 12.6828L7.70822 10.8828C8.03322 10.7411 8.29989 10.9161 8.29989 11.2745V12.1995V13.6995C8.29989 13.8911 8.19155 14.1661 8.05822 14.2995L6.12489 16.2411C5.92489 16.4411 5.83322 16.8328 5.92489 17.1161L6.29989 18.2495C6.44989 18.7411 7.00822 18.9745 7.46655 18.7411L9.44989 17.0745C9.74989 16.8161 10.2416 16.8161 10.5416 17.0745L12.5249 18.7411C12.9832 18.9661 13.5416 18.7411 13.7082 18.2495L14.0832 17.1161C14.1749 16.8411 14.0832 16.4411 13.8832 16.2411L11.9499 14.2995C11.8082 14.1661 11.6999 13.8911 11.6999 13.6995V11.2745C11.6999 10.9161 11.9582 10.7495 12.2916 10.8828L16.4666 12.6828C17.1249 12.9661 17.6582 12.6161 17.6582 11.9078V10.8078C17.6582 10.2411 17.2332 9.58281 16.7082 9.35781Z" fill="white"/>
</svg>