<svg width="40" height="31" viewBox="0 0 40 31" fill="none" xmlns="http://www.w3.org/2000/svg">
    <path d="M15.7727 0.5C19.5985 0.503771 23.2665 2.0492 25.9705 4.79675C28.6746 7.5443 30.1936 11.2692 30.1938 15.153L28.5389 14.2183C28.4764 14.1833 28.4131 14.1501 28.3488 14.1187C28.1605 11.8662 27.3882 9.70433 26.1104 7.85288C24.8326 6.00144 23.0947 4.52636 21.0735 3.57751C19.0522 2.62866 16.8196 2.23986 14.6024 2.45061C12.3852 2.66136 10.2624 3.46414 8.44982 4.7774C6.63721 6.09066 5.19936 7.86761 4.28231 9.92768C3.36525 11.9878 3.0017 14.2575 3.2286 16.5064C3.45549 18.7553 4.26474 20.9032 5.57412 22.7317C6.88351 24.5603 8.64638 26.0045 10.6836 26.9175C9.50818 27.071 8.3183 27.0728 7.14244 26.9228C4.71472 25.0783 2.91991 22.5055 2.01191 19.5684C1.10391 16.6313 1.12874 13.4788 2.08292 10.5568C3.03709 7.63489 4.87225 5.09155 7.32874 3.28673C9.78522 1.48191 12.7386 0.507014 15.7709 0.5H15.7727ZM19.0851 4.12857L16.6996 5.41725L15.7429 6.77886L14.2807 6.51205L12.193 7.74025L9.81623 6.89714L8.47148 7.72158L6.93572 9.90761L7.40616 10.5453L8.13156 10.515L8.24283 11.3155L7.3913 11.3012L7.03384 11.7272L5.7355 10.5284L5.20982 12.0127L6.49677 12.2715L6.40042 13.3236L5.54536 13.6696L5.64877 14.6559L6.14375 15.2144L4.94262 17.3151L5.17656 18.9871L6.4679 20.024L9.01988 19.6559L9.66993 21.3038L9.91874 23.0826L11.1593 25.4989L12.1642 25.7248L13.3162 23.5192L13.1944 22.6477L13.8374 21.7361L13.5834 19.9191L14.9028 18.0417L13.6263 18.2258L12.2114 15.8165L14.0118 17.2617L15.7771 15.9686L13.8094 15.0668L14.7976 14.9245L17.4451 15.4688L19.051 16.2585L19.5223 17.1203L20.8224 16.6134L21.1326 19.1658L22.2811 18.7372L24.3118 19.5936L24.3022 19.0449L23.3315 18.1173C23.1743 17.9713 23.0505 17.7921 22.9688 17.5924C22.887 17.3927 22.8494 17.1772 22.8584 16.9611C22.8618 16.755 22.9062 16.5517 22.9889 16.3635L22.9741 16.2229L22.4178 15.2286L23.8659 14.6488L24.3986 13.2374L23.7722 11.7335L24.1226 11.2381L25.3981 11.054L25.9553 10.2607C25.2819 8.81821 24.3261 7.53014 23.1461 6.47508C21.9662 5.42003 20.5867 4.62011 19.0921 4.12413L19.0851 4.12857Z" fill="white"/>
    <path d="M35.306 17.7261C36.2197 17.1276 38.4169 16.7372 39.0547 17.9263C39.6925 19.1153 38.1786 20.7829 37.1886 21.24L35.0449 22.2298L34.62 28.8058C34.603 29.1105 34.4934 29.4025 34.3062 29.6414C34.119 29.8803 33.8635 30.0544 33.5748 30.1398L32.7285 30.4004C32.6475 30.4256 32.5621 30.4331 32.478 30.4223C32.3939 30.4116 32.313 30.3828 32.2407 30.3379C32.1684 30.293 32.1063 30.233 32.0586 30.1619C32.0108 30.0908 31.9785 30.0102 31.9637 29.9255L30.9168 24.1304L28.7564 25.1283L28.2755 27.8488C28.1283 28.683 27.5851 28.8885 26.9832 29.1366C26.9035 29.1698 26.8177 29.1852 26.7316 29.1816C26.6455 29.1781 26.5612 29.1557 26.4844 29.116C26.4077 29.0763 26.3402 29.0203 26.2868 28.9517C26.2333 28.8831 26.195 28.8036 26.1746 28.7186L25.38 25.5027L23.153 23.081C23.0939 23.0172 23.0491 22.9413 23.0214 22.8584C22.9938 22.7755 22.9841 22.6876 22.9929 22.6005C23.0017 22.5135 23.0288 22.4293 23.0725 22.3539C23.1161 22.2784 23.1753 22.2134 23.2459 22.1632L23.5963 21.9141C23.7985 21.765 24.0356 21.672 24.284 21.6444C24.5325 21.6168 24.7837 21.6555 25.0129 21.7567L27.5212 22.8239L29.516 21.5175L25.295 17.4825C25.2332 17.4236 25.1844 17.3522 25.1517 17.2728C25.119 17.1934 25.1032 17.1079 25.1053 17.0219C25.1075 16.9359 25.1275 16.8514 25.1641 16.7738C25.2007 16.6962 25.2531 16.6273 25.3178 16.5718L25.9915 15.9892C26.2185 15.7884 26.5016 15.6642 26.8013 15.6341C27.101 15.604 27.4025 15.6694 27.6639 15.8211L33.3278 19.0228L35.3068 17.7261H35.306ZM24.2122 28.2988C15.9771 31.8447 1.6795 33.4971 0.76663 22.9111C0.759621 22.8293 0.755256 22.7466 0.75 22.6639C2.63006 31.7984 14.5876 28.5141 22.2866 24.8259L23.7479 26.4134L24.2131 28.2988H24.2122Z" fill="#E03F3F"/>
</svg>
