<svg width="33" height="28" viewBox="0 0 33 28" fill="none" xmlns="http://www.w3.org/2000/svg">
    <path d="M19.1826 12.4787H13.4186C10.8236 12.4787 8.7124 14.5899 8.7124 17.185V26.7139C8.7124 27.2337 9.1338 27.6552 9.65365 27.6552H22.9476C23.4675 27.6552 23.8889 27.2338 23.8889 26.7139V17.185C23.8889 14.5899 21.7776 12.4787 19.1826 12.4787ZM16.3006 0C13.1798 0 10.6408 2.53898 10.6408 5.65989C10.6408 7.77677 11.8092 9.62558 13.5346 10.5962C14.3531 11.0566 15.2966 11.3197 16.3006 11.3197C17.3047 11.3197 18.2482 11.0566 19.0666 10.5962C20.7921 9.62558 21.9605 7.77671 21.9605 5.65989C21.9605 2.53905 19.4215 0 16.3006 0Z" fill="#003663"/>
    <path d="M27.8954 14.9305H25.3742C25.6311 15.6341 25.7716 16.3934 25.7716 17.1849V26.7139C25.7716 27.0438 25.7141 27.3605 25.6096 27.6551H29.7779C31.3349 27.6551 32.6016 26.3883 32.6016 24.8314V19.6367C32.6017 17.0417 30.4905 14.9305 27.8954 14.9305ZM6.83011 17.1849C6.83011 16.3935 6.97052 15.6342 7.22751 14.9306H4.70623C2.11121 14.9306 0 17.0418 0 19.6368V24.8315C0 26.3885 1.26669 27.6552 2.82374 27.6552H6.99204C6.88476 27.353 6.82999 27.0346 6.83011 26.7139V17.1849ZM6.36229 5.27539C4.02828 5.27539 2.12949 7.17418 2.12949 9.5082C2.12949 11.8422 4.02828 13.741 6.36229 13.741C6.93585 13.7415 7.50346 13.6247 8.03026 13.3979C8.91573 13.0167 9.64583 12.3419 10.0976 11.4966C10.4249 10.885 10.5958 10.2019 10.5951 9.5082C10.5951 7.17425 8.6963 5.27539 6.36229 5.27539ZM26.2394 5.27539C23.9054 5.27539 22.0066 7.17418 22.0066 9.5082C22.0059 10.2019 22.1768 10.885 22.5041 11.4966C22.9558 12.3419 23.6859 13.0168 24.5714 13.3979C25.0982 13.6247 25.6658 13.7415 26.2394 13.741C28.5734 13.741 30.4722 11.8422 30.4722 9.5082C30.4722 7.17418 28.5734 5.27539 26.2394 5.27539Z" fill="#E03F3F"/>
</svg>
