<svg width="18" height="18" viewBox="0 0 18 18" fill="none" xmlns="http://www.w3.org/2000/svg">
    <path d="M17.3334 16.2092H16.5001V6.81758C16.5001 6.30091 16.2667 5.81758 15.8584 5.50091L14.8334 4.70091L14.8167 2.65924C14.8167 2.20091 14.4417 1.83424 13.9834 1.83424H11.1417L10.0251 0.967578C9.42508 0.492578 8.57508 0.492578 7.97508 0.967578L2.14175 5.50091C1.73341 5.81758 1.50008 6.30091 1.50008 6.80925L1.45841 16.2092H0.666748C0.325081 16.2092 0.041748 16.4926 0.041748 16.8342C0.041748 17.1759 0.325081 17.4592 0.666748 17.4592H17.3334C17.6751 17.4592 17.9584 17.1759 17.9584 16.8342C17.9584 16.4926 17.6751 16.2092 17.3334 16.2092ZM4.41675 9.12591V7.87591C4.41675 7.41758 4.79175 7.04258 5.25008 7.04258H6.91675C7.37508 7.04258 7.75008 7.41758 7.75008 7.87591V9.12591C7.75008 9.58424 7.37508 9.95924 6.91675 9.95924H5.25008C4.79175 9.95924 4.41675 9.58424 4.41675 9.12591ZM11.0834 16.2092H6.91675V13.9176C6.91675 13.2259 7.47508 12.6676 8.16675 12.6676H9.83341C10.5251 12.6676 11.0834 13.2259 11.0834 13.9176V16.2092ZM13.5834 9.12591C13.5834 9.58424 13.2084 9.95924 12.7501 9.95924H11.0834C10.6251 9.95924 10.2501 9.58424 10.2501 9.12591V7.87591C10.2501 7.41758 10.6251 7.04258 11.0834 7.04258H12.7501C13.2084 7.04258 13.5834 7.41758 13.5834 7.87591V9.12591Z" fill="white"/>
</svg>