<svg width="34" height="36" viewBox="0 0 34 36" fill="none" xmlns="http://www.w3.org/2000/svg">
    <path fill-rule="evenodd" clip-rule="evenodd" d="M12.4136 1.31352L13.0772 2.25097L14.1881 2.60332L13.5017 3.52342L13.5099 4.68906L12.4228 4.32394L11.3164 4.68906L11.331 3.54076L10.6391 2.6024L11.7345 2.26102L12.4127 1.31261L12.4136 1.31352ZM24.5347 3.21945L23.9825 4.00081L23.056 4.29382L23.6283 5.06057L23.621 6.0318L24.5274 5.7251L25.4494 6.0318L25.4375 5.07518L26.0144 4.29382L25.1016 4.00993L24.5365 3.21945H24.5347ZM8.65745 3.21945L9.21061 4.00081L10.1371 4.29382L9.56477 5.06057L9.57207 6.0318L8.66566 5.7251L7.74372 6.0318L7.75559 5.07518L7.17871 4.29382L8.09151 4.00993L8.65653 3.21945H8.65745ZM16.5988 0L17.3108 1.00407L18.5048 1.38198L17.7681 2.37055L17.7773 3.62291L16.6089 3.22676L15.4222 3.62291L15.4377 2.38971L14.6938 1.38562L15.8713 1.02051L16.6016 0.0018246L16.5988 0ZM20.7813 1.31261L20.1177 2.25005L19.0068 2.6024L19.6932 3.5225L19.685 4.68815L20.7722 4.32302L21.8785 4.68815L21.8639 3.53984L22.5558 2.60148L21.4604 2.2601L20.7822 1.31169L20.7813 1.31261Z" fill="#E03F3F"/>
    <path fill-rule="evenodd" clip-rule="evenodd" d="M23.3468 8.7211H9.84549V34.317H11.2512V25.8781H12.3767V34.317H13.2201V29.2537C13.2201 28.3579 13.5759 27.4989 14.2093 26.8655C14.8427 26.2321 15.7017 25.8763 16.5975 25.8763C17.4932 25.8763 18.3523 26.2321 18.9856 26.8655C19.619 27.4989 19.9749 28.3579 19.9749 29.2537V34.317H20.8183V25.8781H21.9438V34.317H23.3504V8.7211H23.3468ZM27.2846 26.7225H26.1591V29.5348H27.2846V26.7225ZM29.5346 26.7225H28.4064V29.5348H29.5319V26.7225H29.5346ZM27.2846 22.7846H26.1591V25.597H27.2846V22.7892V22.7846ZM29.5346 22.7846H28.4064V25.597H29.5319V22.7892L29.5346 22.7846ZM27.2846 18.8468H26.1591V21.6592H27.2846V18.8468ZM29.5346 18.8468H28.4064V21.6592H29.5319V18.8468H29.5346ZM5.90675 26.7225H7.03224V29.5348H5.90675V26.7225ZM3.65668 26.7225H4.78126V29.5348H3.65668V26.7225ZM5.90675 22.7846H7.03224V25.597H5.90675V22.7892V22.7846ZM3.65668 22.7846H4.78126V25.597H3.65668V22.7892V22.7846ZM15.189 10.1268H18.0005V14.0646H15.1881V10.1268H15.189ZM11.2512 10.1268H13.5013V14.0646H11.2512V10.1268ZM19.6901 10.1268H21.9401V14.0646H19.6901V10.1268ZM15.189 15.4713H18.0005V19.2685H15.1881V15.4713H15.189ZM11.2512 15.4713H13.5013V19.2685H11.2512V15.4713ZM19.6901 15.4713H21.9401V19.2685H19.6901V15.4713ZM15.189 20.6742H18.0005V24.4715H15.1881V20.6742H15.189ZM11.2512 20.6742H13.5013V24.4715H11.2512V20.6742ZM19.6901 20.6742H21.9401V24.4715H19.6901V20.6742ZM5.90675 18.8486H7.03224V21.661H5.90675V18.8486ZM3.65668 18.8486H4.78126V21.661H3.65668V18.8486ZM0 16.0363H8.1568V8.16064H7.31246V7.03516H25.8779V8.16064H25.0345V16.0345H33.1913V17.16H32.3479V33.469H25.0345V36.0002H8.15772V33.469H0.844345V17.159H0.000919265V16.0345L0 16.0363ZM8.1568 17.7241H2.53121V31.7876H8.1568V17.7213V17.7241ZM25.0336 31.7876V17.7213H30.6592V31.7849L25.0336 31.7876Z" fill="#003663"/>
</svg>
