<svg width="38" height="27" viewBox="0 0 38 27" fill="none" xmlns="http://www.w3.org/2000/svg">
    <path d="M0.695903 8.58378L1.4456 8.3774V2.75749C1.4456 2.52636 1.53744 2.30469 1.70088 2.14125C1.86431 1.97782 2.086 1.886 2.31713 1.886H25.0975L31.8508 0.0317685C31.9608 0.00105507 32.0758 -0.00749832 32.1891 0.00658752C32.3024 0.0206734 32.4117 0.0571273 32.5108 0.113831C32.6099 0.170535 32.6967 0.246351 32.7663 0.336893C32.8358 0.427434 32.8866 0.530896 32.9159 0.641254L33.2319 1.886H34.837C35.068 1.88621 35.2894 1.97812 35.4527 2.14153C35.616 2.30495 35.7077 2.5265 35.7077 2.75749V11.7061L37.1322 17.3559C37.1828 17.5864 37.1403 17.8276 37.0139 18.0269C36.8875 18.2262 36.6875 18.3675 36.4575 18.4201L35.7077 18.6256V20.1792C35.7078 20.2936 35.6854 20.4069 35.6417 20.5126C35.5979 20.6183 35.5339 20.7144 35.453 20.7953C35.3721 20.8763 35.276 20.9405 35.1704 20.9843C35.0647 21.0281 34.9514 21.0506 34.837 21.0506H33.1368L32.9457 23.8674C32.9369 23.9827 32.9055 24.0951 32.8531 24.1981C32.8007 24.3011 32.7284 24.3928 32.6404 24.4677C32.5524 24.5427 32.4505 24.5994 32.3404 24.6348C32.2304 24.6701 32.1144 24.6833 31.9993 24.6736L16.9308 23.7763L5.30322 26.968C5.19327 26.9989 5.07831 27.0075 4.96498 26.9935C4.85166 26.9794 4.74219 26.943 4.64308 26.8863C4.54397 26.8296 4.45721 26.7537 4.3877 26.6631C4.31819 26.5725 4.26734 26.469 4.23822 26.3586L2.89835 21.0482H2.31713C2.20266 21.0483 2.0893 21.0259 1.98352 20.9821C1.87773 20.9383 1.78163 20.8741 1.70068 20.7932C1.61974 20.7123 1.55549 20.6161 1.51173 20.5104C1.46797 20.4046 1.44549 20.2912 1.4456 20.1767V15.2896L0.0210966 9.64634C-0.0299195 9.41579 0.0124471 9.17442 0.138895 8.975C0.265343 8.77559 0.465613 8.63435 0.695903 8.58217V8.58378ZM19.4478 5.80648H31.0625V7.54864H19.4478V5.80648ZM19.4478 15.3896H28.5939V17.1318H19.4478V15.3904V15.3896ZM19.4478 12.1955H31.0625V13.9377H19.4478V12.1979V12.1955ZM19.4478 9.00058H31.0625V10.7468H19.4478V9.00381V9.00058ZM31.3938 21.0522H26.8703L22.146 22.3494L31.2696 22.8928L31.3946 21.0531L31.3938 21.0522ZM20.3136 21.0522H4.6913L5.70228 25.0622L20.3136 21.0522ZM33.9655 3.62817H3.18777V19.3093H33.9655V3.62897V3.62817Z" fill="#003663"/>
    <path d="M10.818 8.96289C10.3259 8.96289 9.8449 9.1088 9.43577 9.38217C9.02664 9.65554 8.70776 10.0441 8.51946 10.4987C8.33116 10.9533 8.28189 11.4535 8.37788 11.9361C8.47388 12.4187 8.71083 12.862 9.05877 13.21C9.4067 13.5579 9.85 13.7949 10.3326 13.8909C10.8152 13.9869 11.3154 13.9376 11.77 13.7493C12.2246 13.561 12.6132 13.2421 12.8866 12.833C13.1599 12.4238 13.3059 11.9428 13.3059 11.4508C13.3052 10.7911 13.0429 10.1587 12.5765 9.69228C12.11 9.22585 11.4776 8.96353 10.818 8.96289ZM12.2949 10.9784L10.5124 12.7608C10.4769 12.7964 10.4346 12.8246 10.3882 12.8439C10.3417 12.8632 10.2919 12.8731 10.2415 12.8731C10.1912 12.8731 10.1414 12.8632 10.0949 12.8439C10.0485 12.8246 10.0062 12.7964 9.97066 12.7608L9.28944 12.0796C9.25386 12.044 9.22565 12.0018 9.2064 11.9553C9.18714 11.9088 9.17723 11.859 9.17723 11.8087C9.17723 11.7584 9.18714 11.7086 9.2064 11.6621C9.22565 11.6157 9.25386 11.5734 9.28944 11.5378C9.32501 11.5023 9.36724 11.4741 9.41372 11.4548C9.46019 11.4355 9.51001 11.4256 9.56032 11.4256C9.61063 11.4256 9.66044 11.4355 9.70691 11.4548C9.75339 11.4741 9.79562 11.5023 9.8312 11.5378L10.2415 11.9482L11.7531 10.4366C11.7887 10.401 11.8309 10.3728 11.8774 10.3536C11.9239 10.3343 11.9737 10.3244 12.024 10.3244C12.0743 10.3244 12.1241 10.3343 12.1706 10.3536C12.2171 10.3728 12.2593 10.401 12.2949 10.4366C12.3305 10.4722 12.3587 10.5144 12.3779 10.5609C12.3972 10.6074 12.4071 10.6572 12.4071 10.7075C12.4071 10.7578 12.3972 10.8076 12.3779 10.8541C12.3587 10.9005 12.3305 10.9428 12.2949 10.9784Z" fill="#E03F3F"/>
    <path d="M16.3644 8.46429V8.45462C16.3588 8.32885 16.3547 8.19664 16.3523 8.05152C16.3456 7.70312 16.2078 7.37007 15.9663 7.11886C15.7248 6.86765 15.3974 6.71676 15.0495 6.69633C13.6787 6.66724 12.3709 6.11488 11.3943 5.15248L11.3854 5.14442C11.2309 5.00135 11.0281 4.92188 10.8175 4.92188C10.6069 4.92188 10.404 5.00135 10.2495 5.14442L10.2406 5.15248C9.2644 6.1145 7.95727 6.66683 6.587 6.69633C6.23948 6.71654 5.91235 6.86703 5.67088 7.11777C5.4294 7.36851 5.29133 7.70107 5.28421 8.04911C5.28421 8.19583 5.27776 8.32805 5.27212 8.4522V8.478C5.14216 10.2203 5.33595 11.9715 5.8437 13.6432C6.17877 14.5702 6.71797 15.41 7.42141 16.1005C8.30382 16.928 9.35738 17.5514 10.5075 17.9265C10.5488 17.9409 10.5911 17.9525 10.6341 17.9612C10.7554 17.9855 10.8803 17.9855 11.0017 17.9612C11.0449 17.9525 11.0874 17.941 11.1291 17.9265C12.2783 17.5507 13.331 16.927 14.2127 16.0997C14.9159 15.409 15.4551 14.5693 15.7904 13.6424C16.3001 11.9667 16.4947 10.211 16.3644 8.46429ZM10.8211 14.705C10.1773 14.7056 9.54789 14.5153 9.01235 14.1581C8.47681 13.8009 8.05927 13.2928 7.81255 12.6982C7.56583 12.1036 7.50103 11.4492 7.62635 10.8178C7.75166 10.1864 8.06146 9.60633 8.51654 9.15102C8.97162 8.69572 9.55153 8.38563 10.1829 8.26001C10.8143 8.13438 11.4687 8.19886 12.0634 8.44528C12.6581 8.6917 13.1664 9.10899 13.5238 9.64435C13.8813 10.1797 14.0719 10.8091 14.0716 11.4528C14.0701 12.3146 13.7272 13.1407 13.118 13.7502C12.5088 14.3597 11.6829 14.7031 10.8211 14.705Z" fill="#E03F3F"/>
</svg>
