<svg width="16" height="17" viewBox="0 0 16 17" fill="none" xmlns="http://www.w3.org/2000/svg">
    <path d="M13.4499 1.93385L8.86658 0.217187C8.39158 0.0421875 7.61659 0.0421875 7.14159 0.217187L2.55825 1.93385C1.67492 2.26719 0.958252 3.30052 0.958252 4.24219V10.9922C0.958252 11.6672 1.39992 12.5589 1.94159 12.9589L6.52492 16.3839C7.33325 16.9922 8.65825 16.9922 9.46659 16.3839L14.0499 12.9589C14.5916 12.5505 15.0333 11.6672 15.0333 10.9922V4.24219C15.0416 3.30052 14.3249 2.26719 13.4499 1.93385ZM10.8999 6.60052L7.31659 10.1839C7.19159 10.3089 7.03325 10.3672 6.87492 10.3672C6.71658 10.3672 6.55825 10.3089 6.43325 10.1839L5.09992 8.83385C4.85825 8.59219 4.85825 8.19219 5.09992 7.95052C5.34159 7.70885 5.74158 7.70885 5.98325 7.95052L6.88325 8.85052L10.0249 5.70885C10.2666 5.46719 10.6666 5.46719 10.9083 5.70885C11.1499 5.95052 11.1499 6.35885 10.8999 6.60052Z" fill="white"/>
</svg>