<svg width="18" height="14" viewBox="0 0 18 14" fill="none" xmlns="http://www.w3.org/2000/svg">
    <path d="M16.5751 5.31628C15.8668 4.53294 14.6834 4.14128 12.9668 4.14128H12.7668V4.10794C12.7668 2.70794 12.7668 0.974609 9.63345 0.974609H8.36678C5.23345 0.974609 5.23345 2.71628 5.23345 4.10794V4.14961H5.03345C3.30845 4.14961 2.13345 4.54128 1.42511 5.32461C0.600113 6.24128 0.625113 7.47461 0.708446 8.31628L0.716779 8.37461L0.777568 9.01289C0.791832 9.16267 0.872585 9.29805 0.998582 9.38027C1.20063 9.51212 1.51037 9.71087 1.70011 9.81628C1.81678 9.89128 1.94178 9.95794 2.06678 10.0246C3.49178 10.8079 5.05845 11.3329 6.65011 11.5913C6.72511 12.3746 7.06678 13.2913 8.89178 13.2913C10.7168 13.2913 11.0751 12.3829 11.1334 11.5746C12.8334 11.2996 14.4751 10.7079 15.9584 9.84128C16.0084 9.81628 16.0418 9.79128 16.0834 9.76628C16.4036 9.58529 16.7355 9.36361 17.0401 9.14493C17.1533 9.06366 17.2255 8.93753 17.2409 8.79902L17.2501 8.71628L17.2918 8.32461C17.3001 8.27461 17.3001 8.23294 17.3084 8.17461C17.3751 7.33294 17.3584 6.18294 16.5751 5.31628ZM9.90845 11.0246C9.90845 11.9079 9.90845 12.0413 8.88344 12.0413C7.85845 12.0413 7.85845 11.8829 7.85845 11.0329V9.98294H9.90845V11.0246ZM6.42511 4.14128V4.10794C6.42511 2.69128 6.42511 2.16628 8.36678 2.16628H9.63345C11.5751 2.16628 11.5751 2.69961 11.5751 4.10794V4.14961H6.42511V4.14128Z" fill="white"/>
</svg>