<svg width="33" height="32" viewBox="0 0 33 32" fill="none" xmlns="http://www.w3.org/2000/svg">
    <path d="M11.707 5.02752C11.707 5.36091 11.5746 5.68067 11.3389 5.91642C11.1031 6.15216 10.7834 6.2846 10.45 6.2846C10.1166 6.2846 9.7968 6.15216 9.56105 5.91642C9.32531 5.68067 9.19287 5.36091 9.19287 5.02752V2.24519C9.19794 1.64826 9.4385 1.07751 9.86225 0.65704C10.286 0.236573 10.8586 0.000418913 11.4556 0H20.7571C21.3541 0.000418913 21.9267 0.236573 22.3505 0.65704C22.7742 1.07751 23.0148 1.64826 23.0199 2.24519V5.02752C23.0199 5.36091 22.8874 5.68067 22.6517 5.91642C22.4159 6.15216 22.0962 6.2846 21.7628 6.2846C21.4294 6.2846 21.1097 6.15216 20.874 5.91642C20.6382 5.68067 20.5057 5.36091 20.5057 5.02752V2.51335H11.707V5.02752Z" fill="#E03F3F"/>
    <path fill-rule="evenodd" clip-rule="evenodd" d="M24.0248 29.1553H26.0362V9.88225H24.0248V29.1553ZM8.1873 23.7094L6.17601 21.6989V29.1561H8.1873V23.7102V23.7094ZM6.17601 16.3707L8.1873 14.3594V9.88317H6.17601V16.3707ZM5.92539 30.6637V31.2485C5.92539 31.3472 5.94481 31.4449 5.98259 31.5361C6.02037 31.6273 6.07572 31.7102 6.14552 31.78C6.21533 31.8498 6.29821 31.9052 6.38942 31.9429C6.48062 31.9807 6.57843 32.0002 6.67715 32.0002H7.67943C7.77815 32.0002 7.87596 31.9807 7.96717 31.9429C8.05837 31.9052 8.14125 31.8498 8.21106 31.78C8.28087 31.7102 8.33622 31.6273 8.37399 31.5361C8.41177 31.4449 8.4312 31.3472 8.4312 31.2485V30.6637H23.7659V31.2485C23.7659 31.3472 23.7853 31.4449 23.8231 31.5361C23.8609 31.6273 23.9162 31.7102 23.986 31.78C24.0558 31.8498 24.1387 31.9052 24.2299 31.9429C24.3211 31.9807 24.4189 32.0002 24.5177 32.0002H25.5199C25.6187 32.0002 25.7165 31.9807 25.8077 31.9429C25.8989 31.9052 25.9818 31.8498 26.0516 31.78C26.1214 31.7102 26.1767 31.6273 26.2145 31.5361C26.2523 31.4449 26.2717 31.3472 26.2717 31.2485V30.6637H28.6597C29.5923 30.6611 30.4859 30.2896 31.1454 29.6303C31.8049 28.9709 32.1767 28.0774 32.1796 27.1448V11.897C32.1769 10.9643 31.8052 10.0705 31.1457 9.41099C30.4861 8.75147 29.5924 8.37985 28.6597 8.3772H23.0033C23.0033 8.0438 22.8709 7.72405 22.6351 7.4883C22.3994 7.25255 22.0796 7.12012 21.7462 7.12012C21.4128 7.12012 21.0931 7.25255 20.8573 7.4883C20.6216 7.72405 20.4892 8.0438 20.4892 8.3772H11.6904C11.6904 8.0438 11.558 7.72405 11.3222 7.4883C11.0865 7.25255 10.7667 7.12012 10.4333 7.12012C10.0999 7.12012 9.78016 7.25255 9.54441 7.4883C9.30866 7.72405 9.17623 8.0438 9.17623 8.3772H3.51981C2.58711 8.37985 1.69341 8.75147 1.03389 9.41099C0.374367 10.0705 0.00264473 10.9643 0 11.897V27.1481C0.00286499 28.0807 0.374595 28.9742 1.03409 29.6335C1.69359 30.2929 2.58726 30.6645 3.51981 30.6671L5.92539 30.6637ZM14.7792 15.2748C14.6501 15.3966 14.4778 15.4622 14.3003 15.457C14.1228 15.4518 13.9548 15.3764 13.8329 15.2473C13.7111 15.1181 13.6455 14.9458 13.6507 14.7683C13.6559 14.5909 13.7313 14.4227 13.8604 14.3009C14.2209 13.9624 14.5514 13.5936 14.8485 13.1983C14.4835 13.0767 14.0876 13.0844 13.7276 13.2203C13.3675 13.3561 13.0652 13.6117 12.8714 13.9442C12.6776 14.2767 12.6042 14.6658 12.6634 15.046C12.7227 15.4262 12.911 15.7744 13.1968 16.0322C13.4825 16.2899 13.8483 16.4415 14.2326 16.4613C14.6169 16.4812 14.9963 16.3681 15.3071 16.1412C15.6179 15.9142 15.8411 15.5873 15.9392 15.2152C16.0373 14.8431 16.0043 14.4486 15.8458 14.098C15.5211 14.5181 15.1637 14.9119 14.7768 15.2756L14.7792 15.2748ZM17.6676 9.88225H16.3061C16.1661 10.6171 15.9261 11.3293 15.5928 11.9989L15.3422 11.7483H12.9258L5.64143 19.0327L10.0766 23.4671L17.3611 16.1828V13.7605L16.5842 12.9836C17.1242 12.0192 17.4917 10.968 17.6701 9.87726L17.6676 9.88225Z" fill="#003663"/>
</svg>
