<svg width="34" height="34" viewBox="0 0 34 34" fill="none" xmlns="http://www.w3.org/2000/svg">
    <path d="M21.7474 26.468L27.6661 27.0907L27.5042 28.672L21.7474 28.0659V26.4671V26.468ZM28.2021 10.7966C29.0759 11.6721 29.581 12.8493 29.6134 14.0859C29.6457 15.3225 29.203 16.5244 28.3762 17.4445C27.5494 18.3646 26.4014 18.933 25.1684 19.0325C23.9354 19.1321 22.7111 18.7553 21.7474 17.9798V15.3358C21.9074 15.7782 22.1628 16.1802 22.4953 16.5131C22.9491 16.9661 23.5269 17.2745 24.1558 17.3992C24.7848 17.524 25.4366 17.4594 26.0289 17.2138C26.6212 16.9682 27.1275 16.5525 27.4836 16.0193C27.8397 15.4861 28.0298 14.8593 28.0298 14.2181C28.0298 13.5768 27.8397 12.95 27.4836 12.4168C27.1275 11.8836 26.6212 11.4679 26.0289 11.2223C25.4366 10.9767 24.7848 10.9122 24.1558 11.0369C23.5269 11.1616 22.9491 11.47 22.4953 11.923C22.1628 12.2559 21.9074 12.6579 21.7474 13.1003V10.4563C22.6768 9.70909 23.849 9.33067 25.0399 9.39344C26.2307 9.45621 27.3565 9.95579 28.2021 10.7966ZM21.7474 23.427L28.0072 24.0864L27.8453 25.6677L21.7466 25.0258V23.4226L21.7474 23.427Z" fill="#E03F3F"/>
    <path fill-rule="evenodd" clip-rule="evenodd" d="M0.00181501 4.24705C0.00181501 2.97273 1.29887 2.56253 2.33442 2.42521L20.5842 0.0060193C20.6961 -0.00778842 20.8097 0.00222499 20.9175 0.0353797C21.0253 0.0685344 21.1248 0.124088 21.2096 0.19841C21.2945 0.272733 21.3626 0.364211 21.4096 0.466711C21.4566 0.569211 21.4814 0.680435 21.4824 0.793199V4.29168L34 5.7724L30.9668 33.3912L21.7475 32.3049V31.2361L30.031 32.2122L32.8297 6.70308L17.0507 4.83661L16.8312 7.26712L19.4892 7.71062C19.6833 7.74312 19.8584 7.84637 19.9807 8.00049C20.103 8.15461 20.1637 8.34864 20.1513 8.54499V33.1996C20.151 33.3148 20.1259 33.4287 20.0775 33.5333C20.0291 33.6378 19.9587 33.7307 19.871 33.8055C19.7834 33.8803 19.6805 33.9352 19.5696 33.9665C19.4587 33.9978 19.3424 34.0047 19.2286 33.9868L2.33004 31.1644C1.79757 31.1182 1.28141 30.9575 0.816967 30.693C0.573428 30.5624 0.369234 30.3691 0.225595 30.133C0.0819557 29.8969 0.00403015 29.6267 0 29.3504V4.24887L0.00181501 4.24705ZM19.8915 4.10452V1.70017L2.54432 4.00042C1.98981 4.07389 1.56827 4.07565 1.56827 4.44649C1.56827 4.81733 2.19009 4.8235 2.61777 4.89522L15.7878 7.0949L16.0992 3.65675L19.8915 4.10537V4.10452ZM12.6444 14.0053C12.5223 13.6196 12.3762 13.2418 12.2071 12.8743C11.8906 12.0637 11.3452 11.3626 10.6372 10.8566V13.8933C11.3011 13.9812 11.9705 14.0187 12.64 14.0053H12.6444ZM13.2286 17.5038C13.1991 16.7099 13.1026 15.9198 12.94 15.1422C12.1716 15.1641 11.4026 15.1241 10.6406 15.0224V17.0725L13.2286 17.5098V17.5038ZM12.94 20.8981C13.1056 20.1523 13.2022 19.3929 13.2286 18.6294L10.6406 18.1921V20.2422C11.4224 20.4022 12.191 20.6205 12.94 20.8955V20.8981ZM10.6406 24.4071C10.9886 24.2771 11.307 24.0785 11.5767 23.8231C11.8463 23.5677 12.0619 23.2607 12.2106 22.9203C12.3821 22.604 12.5283 22.2746 12.6479 21.9354C11.9943 21.7011 11.325 21.5132 10.645 21.373V24.4098L10.6406 24.4071ZM7.21658 14.1741C7.05145 14.9196 6.95504 15.6787 6.92874 16.4419L9.51683 16.8792V14.8291C8.73489 14.6692 7.96599 14.4512 7.21658 14.1766V14.1741ZM7.94685 12.1537C7.77674 12.4697 7.63197 12.7987 7.51392 13.1376C8.16751 13.3719 8.83682 13.5598 9.51683 13.7V10.6633C9.16887 10.7933 8.85052 10.9919 8.58082 11.2473C8.31113 11.5027 8.09555 11.8097 7.94685 12.1501V12.1537ZM6.92874 17.5676C6.95808 18.3615 7.05443 19.1514 7.21658 19.929C7.98532 19.9073 8.75458 19.9476 9.51683 20.0497V17.9996L6.92874 17.5623V17.5676ZM7.94685 22.1986C8.26342 23.0092 8.80892 23.7103 9.51683 24.2164V21.1797C8.85297 21.0922 8.18339 21.0551 7.51392 21.0686C7.63447 21.454 7.77907 21.8314 7.94685 22.1986ZM15.0688 13.6274C15.0286 13.5776 14.9866 13.5277 14.9447 13.4787C14.3105 12.7344 13.556 12.1018 12.7126 11.607C12.8976 11.9069 13.0638 12.218 13.2103 12.5385C13.4157 12.987 13.5911 13.4486 13.7351 13.9204C14.1881 13.8642 14.6349 13.7662 15.0698 13.6274H15.0688ZM16.938 18.1264C16.8299 16.8901 16.4348 15.6962 15.7843 14.6394C15.2158 14.8419 14.6265 14.98 14.0272 15.0513C14.212 15.92 14.3206 16.8033 14.3517 17.6909L16.938 18.1282V18.1264ZM15.7843 22.3509C16.4583 21.4501 16.8589 20.3743 16.938 19.252L14.3517 18.8147C14.3239 19.6665 14.2153 20.5138 14.0272 21.3451C14.6416 21.6265 15.2296 21.9622 15.7843 22.3482V22.3509ZM12.7126 24.3493C13.5321 24.1503 14.2954 23.7671 14.9447 23.2289C14.9866 23.1939 15.028 23.1584 15.0688 23.1223C14.6431 22.8419 14.1969 22.5936 13.7342 22.3797C13.5933 22.7957 13.4178 23.1992 13.2094 23.5858C13.065 23.8537 12.8986 24.1091 12.7118 24.3493H12.7126ZM5.08853 21.4448C5.12877 21.4938 5.16989 21.5427 5.21099 21.5917C5.84524 22.3359 6.5997 22.9685 7.44303 23.4634C7.2583 23.1633 7.09213 22.8522 6.94539 22.5319C6.74011 22.0839 6.56482 21.6229 6.42064 21.1517C5.96789 21.2081 5.52134 21.3065 5.08682 21.4456L5.08853 21.4448ZM3.21779 16.944C3.32606 18.1796 3.72074 19.3729 4.37054 20.4293C4.93933 20.2269 5.529 20.0886 6.12853 20.0173C5.94409 19.1491 5.83581 18.2665 5.80493 17.3795L3.21865 16.9422L3.21779 16.944ZM4.37054 12.7204C3.69698 13.621 3.29681 14.6965 3.21779 15.8184L5.80407 16.2557C5.83161 15.4042 5.93997 14.5572 6.12768 13.7262C5.51304 13.4447 4.92471 13.109 4.36968 12.723L4.37054 12.7204ZM7.44303 10.7211C6.62355 10.9201 5.86021 11.3033 5.21099 11.8415C5.16989 11.8756 5.12877 11.9114 5.08853 11.9464C5.51402 12.2268 5.95988 12.475 6.42235 12.689C6.56326 12.2735 6.73878 11.8706 6.9471 11.4846C7.09177 11.2168 7.2583 10.9615 7.44484 10.7211H7.44303ZM3.61219 27.6502C3.40411 27.6154 3.21839 27.4994 3.09587 27.3276C2.97334 27.1559 2.92409 26.9425 2.95889 26.7345C2.99368 26.5264 3.10969 26.3407 3.28143 26.2181C3.45316 26.0956 3.66654 26.0463 3.87461 26.0811L16.5741 28.2021C16.6771 28.2193 16.7757 28.2567 16.8643 28.312C16.9529 28.3674 17.0298 28.4396 17.0904 28.5246C17.1511 28.6096 17.1944 28.7057 17.2179 28.8075C17.2414 28.9093 17.2446 29.0148 17.2274 29.1178C17.2102 29.2208 17.1729 29.3195 17.1175 29.4081C17.0622 29.4967 16.9899 29.5734 16.9049 29.6341C16.8198 29.6948 16.7237 29.7381 16.6219 29.7616C16.5202 29.7851 16.4147 29.7884 16.3117 29.7712L3.61219 27.6493V27.6502Z" fill="#003663"/>
</svg>
