<svg width="14" height="18" viewBox="0 0 14 18" fill="none" xmlns="http://www.w3.org/2000/svg">
    <path d="M10.4739 13.6868C10.4739 13.9978 10.2221 14.2502 9.91051 14.2502H4.27683C3.96529 14.2502 3.71346 13.9978 3.71346 13.6868C3.71346 13.3759 3.96529 13.1235 4.27683 13.1235H9.91051C10.2221 13.1235 10.4739 13.3759 10.4739 13.6868ZM12.164 0.166016H2.02336C1.0938 0.166016 0.333252 0.926562 0.333252 1.85612V15.377C0.333252 16.3065 1.0938 17.0671 2.02336 17.0671H12.164C13.0935 17.0671 13.8541 16.3065 13.8541 15.377V1.85612C13.8541 0.926562 13.0935 0.166016 12.164 0.166016ZM7.09367 11.4334C4.60922 11.4334 2.58672 9.41088 2.58672 6.92643C2.58672 4.44198 4.60922 2.41949 7.09367 2.41949C9.57812 2.41949 11.6006 4.44198 11.6006 6.92643C11.6006 9.41088 9.57812 11.4334 7.09367 11.4334ZM8.86264 4.05326C9.12179 4.71803 9.27954 5.52928 9.33024 6.36306H10.4232C10.2598 5.38844 9.67389 4.55465 8.86264 4.05326ZM8.86264 9.79961C9.67389 9.29821 10.2598 8.46443 10.4237 7.4898H9.3308C9.27954 8.32358 9.12179 9.13484 8.86264 9.79961ZM7.09367 3.54622C6.73311 3.54622 6.10777 4.60536 5.98947 6.36306H8.19787C8.07956 4.60536 7.45422 3.54622 7.09367 3.54622ZM7.09367 10.3066C7.45422 10.3066 8.07956 9.24751 8.19787 7.4898H5.98947C6.10777 9.24751 6.73311 10.3066 7.09367 10.3066ZM3.76416 6.36306H4.8571C4.9078 5.52928 5.06554 4.71803 5.32469 4.05326C4.51344 4.55465 3.92754 5.38844 3.76416 6.36306ZM3.76416 7.4898C3.92754 8.46443 4.51344 9.29821 5.32526 9.79961C5.06611 9.13484 4.90836 8.32358 4.85766 7.4898H3.76416ZM9.33024 7.4898C9.27954 8.32358 9.12179 9.13484 8.86264 9.79961C9.67389 9.29821 10.2598 8.46443 10.4237 7.4898H9.33024ZM4.8571 7.4898H3.76416C3.92754 8.46443 4.51344 9.29821 5.32526 9.79961C5.06554 9.13484 4.9078 8.32358 4.8571 7.4898ZM3.76416 6.36306H4.8571C4.9078 5.52928 5.06554 4.71803 5.32469 4.05326C4.51344 4.55465 3.92754 5.38844 3.76416 6.36306ZM7.09367 3.54622C6.73311 3.54622 6.10777 4.60536 5.98947 6.36306H8.19787C8.07956 4.60536 7.45422 3.54622 7.09367 3.54622ZM5.98947 7.4898C6.10777 9.24751 6.73311 10.3066 7.09367 10.3066C7.45422 10.3066 8.07956 9.24751 8.19787 7.4898H5.98947ZM8.86264 4.05326C9.12179 4.71803 9.27954 5.52928 9.33024 6.36306H10.4232C10.2598 5.38844 9.67389 4.55465 8.86264 4.05326ZM10.4232 6.36306C10.2598 5.38844 9.67389 4.55465 8.86208 4.05326C9.12123 4.71803 9.27897 5.52928 9.32968 6.36306H10.4232ZM8.86264 9.79961C9.67389 9.29821 10.2598 8.46443 10.4237 7.4898H9.3308C9.27954 8.32358 9.12179 9.13484 8.86264 9.79961ZM7.09367 3.54622C6.73311 3.54622 6.10777 4.60536 5.98947 6.36306H8.19787C8.07956 4.60536 7.45422 3.54622 7.09367 3.54622ZM7.09367 10.3066C7.45422 10.3066 8.07956 9.24751 8.19787 7.4898H5.98947C6.10777 9.24751 6.73311 10.3066 7.09367 10.3066ZM3.76416 6.36306H4.8571C4.9078 5.52928 5.06554 4.71803 5.32469 4.05326C4.51344 4.55465 3.92754 5.38844 3.76416 6.36306ZM3.76416 7.4898C3.92754 8.46443 4.51344 9.29821 5.32526 9.79961C5.06611 9.13484 4.90836 8.32358 4.85766 7.4898H3.76416Z" fill="white"/>
</svg>